<svg xmlns="http://www.w3.org/2000/svg" viewBox="0 0 32 32" fill="none">
  <!-- RealPro Favicon - Simplified Cloud Design -->
  <defs>
    <linearGradient id="cloudGrad" x1="0%" y1="0%" x2="100%" y2="100%">
      <stop offset="0%" style="stop-color:#5BC4D6"/>
      <stop offset="50%" style="stop-color:#3DAABD"/>
      <stop offset="100%" style="stop-color:#2E8A9A"/>
    </linearGradient>
  </defs>

  <!-- Simplified Cloud Shape for favicon -->
  <path
    d="M26 18c0-0.8-0.2-1.5-0.5-2.2 0.3-0.7 0.5-1.4 0.5-2.2 0-3.5-2.9-6.4-6.4-6.4-1 0-1.9 0.2-2.7 0.6C15.6 5.7 13.4 4.4 10.8 4.4c-3.5 0-6.4 2.9-6.4 6.4 0 0.5 0.1 0.9 0.1 1.3C2.4 13 1 15.2 1 17.9c0 3.5 2.9 6.4 6.4 6.4h16.6c2.7 0 4.8-2.1 4.8-4.8 0-0.7-0.2-1.3-0.4-1.9H26z"
    fill="url(#cloudGrad)"
  />

  <!-- Subtle highlight -->
  <ellipse cx="10" cy="11" rx="3" ry="1.5" fill="white" opacity="0.25"/>
</svg>
