<svg xmlns="http://www.w3.org/2000/svg" xmlns:xlink="http://www.w3.org/1999/xlink" width="500" zoomAndPan="magnify" viewBox="35 145 330 75" height="500" preserveAspectRatio="xMidYMid meet" version="1.0"><defs><g/><clipPath id="c95dae61a1"><rect x="0" width="94" y="0" height="55"/></clipPath><clipPath id="24caa0a95e"><rect x="0" width="74" y="0" height="68"/></clipPath><clipPath id="7928c921c3"><path d="M 50.449219 160.039062 L 84 160.039062 L 84 202.789062 L 50.449219 202.789062 Z M 50.449219 160.039062 " clip-rule="nonzero"/></clipPath><clipPath id="987c0b56f6"><path d="M 76 160.039062 L 110 160.039062 L 110 202.789062 L 76 202.789062 Z M 76 160.039062 " clip-rule="nonzero"/></clipPath><clipPath id="5015a89686"><path d="M 101 160.039062 L 144.949219 160.039062 L 144.949219 202.789062 L 101 202.789062 Z M 101 160.039062 " clip-rule="nonzero"/></clipPath></defs><g transform="matrix(1, 0, 0, 1, 147, 160)"><g clip-path="url(#c95dae61a1)"><g fill="#eeede9" fill-opacity="1"><g transform="translate(0.72429, 39.193138)"><g><path d="M 36.328125 -27.765625 C 36.328125 -25.585938 35.460938 -23.546875 33.734375 -21.640625 C 32.015625 -19.742188 29.394531 -18.425781 25.875 -17.6875 L 31.671875 -5.4375 C 32.410156 -3.882812 33.1875 -2.753906 34 -2.046875 C 34.8125 -1.347656 35.988281 -0.984375 37.53125 -0.953125 L 37.21875 0 L 28.828125 0 L 20.640625 -17.3125 C 19.335938 -17.414062 18.507812 -17.503906 18.15625 -17.578125 C 18.019531 -17.578125 17.671875 -17.613281 17.109375 -17.6875 L 14.046875 -6.921875 C 13.941406 -6.671875 13.800781 -6.179688 13.625 -5.453125 C 13.445312 -4.734375 13.359375 -4.128906 13.359375 -3.640625 C 13.359375 -2.546875 13.742188 -1.820312 14.515625 -1.46875 C 15.296875 -1.125 16.300781 -0.953125 17.53125 -0.953125 L 17.265625 0 L 1.3125 0 L 1.578125 -0.953125 C 3.585938 -0.953125 5.050781 -1.207031 5.96875 -1.71875 C 6.882812 -2.226562 7.585938 -3.3125 8.078125 -4.96875 L 14.734375 -27.984375 C 15.085938 -29.210938 15.332031 -30.109375 15.46875 -30.671875 C 15.613281 -31.234375 15.6875 -31.65625 15.6875 -31.9375 C 15.6875 -33.101562 15.296875 -33.851562 14.515625 -34.1875 C 13.742188 -34.519531 12.671875 -34.6875 11.296875 -34.6875 L 11.5625 -35.640625 L 24.1875 -35.640625 C 28.125 -35.640625 31.128906 -34.90625 33.203125 -33.4375 C 35.285156 -31.976562 36.328125 -30.085938 36.328125 -27.765625 Z M 21.640625 -33.53125 L 17.578125 -19.21875 C 18.597656 -19.007812 19.707031 -18.90625 20.90625 -18.90625 C 23.019531 -18.90625 24.796875 -19.332031 26.234375 -20.1875 C 27.679688 -21.050781 28.75 -22.160156 29.4375 -23.515625 C 30.125 -24.867188 30.46875 -26.304688 30.46875 -27.828125 C 30.46875 -29.796875 29.882812 -31.269531 28.71875 -32.25 C 27.5625 -33.238281 26.050781 -33.734375 24.1875 -33.734375 C 23.625 -33.734375 22.773438 -33.664062 21.640625 -33.53125 Z M 21.640625 -33.53125 "/></g></g></g><g fill="#eeede9" fill-opacity="1"><g transform="translate(34.254221, 39.193138)"><g><path d="M 17.109375 -24.125 C 18.585938 -24.125 19.828125 -23.753906 20.828125 -23.015625 C 21.828125 -22.273438 22.328125 -21.328125 22.328125 -20.171875 C 22.328125 -19.046875 21.800781 -17.757812 20.75 -16.3125 C 19.695312 -14.875 17.976562 -13.597656 15.59375 -12.484375 C 13.21875 -11.378906 10.203125 -10.773438 6.546875 -10.671875 C 6.335938 -9.960938 6.234375 -9.097656 6.234375 -8.078125 C 6.234375 -5.929688 6.8125 -4.375 7.96875 -3.40625 C 9.132812 -2.4375 10.421875 -1.953125 11.828125 -1.953125 C 14.179688 -1.953125 16.570312 -3.128906 19 -5.484375 L 19.6875 -4.859375 C 15.925781 -1.191406 12.285156 0.640625 8.765625 0.640625 C 7.316406 0.640625 6.054688 0.28125 4.984375 -0.4375 C 3.910156 -1.164062 3.101562 -2.109375 2.5625 -3.265625 C 2.019531 -4.429688 1.75 -5.628906 1.75 -6.859375 C 1.75 -9.328125 2.457031 -11.914062 3.875 -14.625 C 5.300781 -17.332031 7.203125 -19.59375 9.578125 -21.40625 C 11.953125 -23.21875 14.460938 -24.125 17.109375 -24.125 Z M 6.859375 -11.671875 C 9.253906 -11.847656 11.191406 -12.25 12.671875 -12.875 C 14.109375 -13.507812 15.273438 -14.328125 16.171875 -15.328125 C 17.078125 -16.335938 17.722656 -17.328125 18.109375 -18.296875 C 18.492188 -19.265625 18.6875 -20.066406 18.6875 -20.703125 C 18.6875 -21.296875 18.46875 -21.847656 18.03125 -22.359375 C 17.59375 -22.867188 16.96875 -23.125 16.15625 -23.125 C 14.75 -23.125 13.382812 -22.472656 12.0625 -21.171875 C 10.738281 -19.867188 9.609375 -18.316406 8.671875 -16.515625 C 7.742188 -14.722656 7.140625 -13.109375 6.859375 -11.671875 Z M 6.859375 -11.671875 "/></g></g></g><g fill="#eeede9" fill-opacity="1"><g transform="translate(53.685738, 39.193138)"><g><path d="M 16.421875 -24.125 C 17.367188 -24.125 18.226562 -23.796875 19 -23.140625 C 19.78125 -22.492188 20.257812 -21.59375 20.4375 -20.4375 L 20.53125 -20.4375 L 21.375 -23.546875 L 25.546875 -24.125 L 20.109375 -5.0625 C 20.078125 -5 19.988281 -4.738281 19.84375 -4.28125 C 19.707031 -3.820312 19.640625 -3.363281 19.640625 -2.90625 C 19.640625 -2.625 19.707031 -2.398438 19.84375 -2.234375 C 19.988281 -2.078125 20.148438 -2 20.328125 -2 C 20.785156 -2 21.363281 -2.316406 22.0625 -2.953125 C 22.769531 -3.585938 23.441406 -4.46875 24.078125 -5.59375 L 24.875 -5.0625 C 23.914062 -3.300781 22.707031 -1.910156 21.25 -0.890625 C 19.789062 0.128906 18.5 0.640625 17.375 0.640625 C 16.738281 0.640625 16.257812 0.410156 15.9375 -0.046875 C 15.625 -0.503906 15.46875 -1.070312 15.46875 -1.75 C 15.46875 -2.195312 15.5625 -2.941406 15.75 -3.984375 C 15.945312 -5.023438 16.257812 -6.070312 16.6875 -7.125 L 16.578125 -7.234375 C 12.640625 -1.984375 9.066406 0.640625 5.859375 0.640625 C 4.453125 0.640625 3.332031 0.03125 2.5 -1.1875 C 1.675781 -2.40625 1.265625 -3.804688 1.265625 -5.390625 C 1.265625 -8.128906 2.066406 -10.96875 3.671875 -13.90625 C 5.273438 -16.851562 7.265625 -19.289062 9.640625 -21.21875 C 12.015625 -23.15625 14.273438 -24.125 16.421875 -24.125 Z M 5.484375 -6.390625 C 5.484375 -5.015625 5.800781 -4.007812 6.4375 -3.375 C 7.070312 -2.738281 7.8125 -2.421875 8.65625 -2.421875 C 9.75 -2.421875 10.925781 -2.914062 12.1875 -3.90625 C 13.457031 -4.894531 14.628906 -6.15625 15.703125 -7.6875 C 16.773438 -9.21875 17.578125 -10.773438 18.109375 -12.359375 C 18.640625 -13.898438 19.023438 -15.171875 19.265625 -16.171875 C 19.515625 -17.179688 19.640625 -18.160156 19.640625 -19.109375 C 19.640625 -20.484375 19.320312 -21.492188 18.6875 -22.140625 C 18.050781 -22.796875 17.3125 -23.125 16.46875 -23.125 C 14.8125 -23.125 13.128906 -22.109375 11.421875 -20.078125 C 9.722656 -18.054688 8.304688 -15.691406 7.171875 -12.984375 C 6.046875 -10.273438 5.484375 -8.078125 5.484375 -6.390625 Z M 5.484375 -6.390625 "/></g></g></g><g fill="#eeede9" fill-opacity="1"><g transform="translate(76.391051, 39.193138)"><g><path d="M 7.34375 -5.90625 C 7.09375 -5.0625 6.90625 -4.382812 6.78125 -3.875 C 6.65625 -3.363281 6.59375 -2.9375 6.59375 -2.59375 C 6.59375 -2.34375 6.65625 -2.15625 6.78125 -2.03125 C 6.90625 -1.90625 7.019531 -1.84375 7.125 -1.84375 C 7.550781 -1.84375 8.273438 -2.351562 9.296875 -3.375 C 10.316406 -4.394531 10.945312 -5.117188 11.1875 -5.546875 L 12.03125 -5.0625 C 10.90625 -3.519531 9.671875 -2.179688 8.328125 -1.046875 C 6.992188 0.078125 5.75 0.640625 4.59375 0.640625 C 3.1875 0.640625 2.484375 -0.1875 2.484375 -1.84375 C 2.484375 -2.507812 2.625 -3.335938 2.90625 -4.328125 C 3.1875 -5.316406 3.378906 -5.96875 3.484375 -6.28125 L 10.984375 -32.359375 C 11.191406 -33.171875 11.296875 -33.804688 11.296875 -34.265625 C 11.296875 -34.722656 11.132812 -35.09375 10.8125 -35.375 C 10.5 -35.65625 10.097656 -35.796875 9.609375 -35.796875 C 8.941406 -35.796875 8.34375 -35.742188 7.8125 -35.640625 L 7.8125 -36.640625 L 15.578125 -37.859375 L 16.46875 -37.859375 L 8.03125 -8.296875 C 7.675781 -7.023438 7.445312 -6.226562 7.34375 -5.90625 Z M 7.34375 -5.90625 "/></g></g></g></g></g><g transform="matrix(1, 0, 0, 1, 239, 150)"><g clip-path="url(#24caa0a95e)"><g fill="#eeede9" fill-opacity="1"><g transform="translate(1.023268, 50.008254)"><g><path d="M 4.109375 0 L 4.109375 -34.125 L 19.21875 -34.125 C 21.738281 -34.125 23.875 -33.703125 25.625 -32.859375 C 27.382812 -32.023438 28.722656 -30.804688 29.640625 -29.203125 C 30.566406 -27.609375 31.03125 -25.679688 31.03125 -23.421875 C 31.03125 -21.234375 30.566406 -19.332031 29.640625 -17.71875 C 28.722656 -16.101562 27.382812 -14.859375 25.625 -13.984375 C 23.875 -13.117188 21.738281 -12.6875 19.21875 -12.6875 L 10.5 -12.6875 L 10.5 0 Z M 10.5 -17.765625 L 18.203125 -17.765625 C 20.359375 -17.765625 21.992188 -18.234375 23.109375 -19.171875 C 24.222656 -20.109375 24.78125 -21.523438 24.78125 -23.421875 C 24.78125 -25.296875 24.222656 -26.691406 23.109375 -27.609375 C 21.992188 -28.535156 20.359375 -29 18.203125 -29 L 10.5 -29 Z M 10.5 -17.765625 "/></g></g></g><g fill="#eeede9" fill-opacity="1"><g transform="translate(29.481782, 50.008254)"><g><path d="M 3.4375 0 L 3.4375 -23.90625 L 9.296875 -23.90625 L 9.296875 -18.109375 L 9.09375 -18.109375 C 9.582031 -19.972656 10.492188 -21.4375 11.828125 -22.5 C 13.171875 -23.570312 14.90625 -24.171875 17.03125 -24.296875 L 19.3125 -24.5 L 19.75 -18.96875 L 15.828125 -18.640625 C 13.859375 -18.441406 12.359375 -17.8125 11.328125 -16.75 C 10.296875 -15.6875 9.78125 -14.265625 9.78125 -12.484375 L 9.78125 0 Z M 3.4375 0 "/></g></g></g><g fill="#eeede9" fill-opacity="1"><g transform="translate(45.550079, 50.008254)"><g><path d="M 14.515625 0.484375 C 12.003906 0.484375 9.816406 -0.0195312 7.953125 -1.03125 C 6.097656 -2.050781 4.660156 -3.5 3.640625 -5.375 C 2.628906 -7.25 2.125 -9.441406 2.125 -11.953125 C 2.125 -14.503906 2.628906 -16.707031 3.640625 -18.5625 C 4.660156 -20.414062 6.097656 -21.847656 7.953125 -22.859375 C 9.816406 -23.878906 12.003906 -24.390625 14.515625 -24.390625 C 17.066406 -24.390625 19.257812 -23.878906 21.09375 -22.859375 C 22.9375 -21.847656 24.363281 -20.40625 25.375 -18.53125 C 26.394531 -16.664062 26.90625 -14.472656 26.90625 -11.953125 C 26.90625 -9.441406 26.394531 -7.25 25.375 -5.375 C 24.363281 -3.5 22.9375 -2.050781 21.09375 -1.03125 C 19.257812 -0.0195312 17.066406 0.484375 14.515625 0.484375 Z M 14.515625 -4.453125 C 16.421875 -4.453125 17.921875 -5.101562 19.015625 -6.40625 C 20.117188 -7.71875 20.671875 -9.582031 20.671875 -12 C 20.671875 -14.425781 20.117188 -16.273438 19.015625 -17.546875 C 17.921875 -18.816406 16.421875 -19.453125 14.515625 -19.453125 C 12.648438 -19.453125 11.160156 -18.816406 10.046875 -17.546875 C 8.929688 -16.273438 8.375 -14.425781 8.375 -12 C 8.375 -9.582031 8.929688 -7.71875 10.046875 -6.40625 C 11.160156 -5.101562 12.648438 -4.453125 14.515625 -4.453125 Z M 14.515625 -4.453125 "/></g></g></g></g></g><g clip-path="url(#7928c921c3)"><path fill="#eeede9" d="M 50.449219 181.433594 C 50.449219 193.226562 60.042969 202.820312 71.835938 202.820312 C 76.125 202.820312 80.117188 201.546875 83.46875 199.367188 C 78.164062 195.179688 74.75 188.699219 74.75 181.433594 C 74.75 174.167969 78.164062 167.6875 83.46875 163.5 C 80.117188 161.320312 76.125 160.046875 71.835938 160.046875 C 60.042969 160.046875 50.449219 169.640625 50.449219 181.433594 Z M 50.449219 181.433594 " fill-opacity="1" fill-rule="nonzero"/></g><g clip-path="url(#987c0b56f6)"><path fill="#eeede9" d="M 76.210938 181.433594 C 76.210938 193.226562 85.804688 202.820312 97.597656 202.820312 C 101.886719 202.820312 105.878906 201.546875 109.230469 199.367188 C 103.925781 195.179688 100.515625 188.699219 100.515625 181.433594 C 100.515625 174.167969 103.925781 167.6875 109.230469 163.5 C 105.878906 161.320312 101.886719 160.046875 97.597656 160.046875 C 85.804688 160.046875 76.210938 169.640625 76.210938 181.433594 Z M 76.210938 181.433594 " fill-opacity="1" fill-rule="nonzero"/></g><g clip-path="url(#5015a89686)"><path fill="#eeede9" d="M 144.75 181.433594 C 144.75 182.132812 144.714844 182.832031 144.644531 183.53125 C 144.578125 184.226562 144.472656 184.917969 144.335938 185.605469 C 144.199219 186.292969 144.03125 186.972656 143.828125 187.640625 C 143.625 188.3125 143.386719 188.96875 143.121094 189.617188 C 142.851562 190.265625 142.554688 190.898438 142.222656 191.515625 C 141.894531 192.132812 141.53125 192.734375 141.144531 193.316406 C 140.753906 193.898438 140.339844 194.460938 139.894531 195 C 139.449219 195.542969 138.980469 196.0625 138.484375 196.554688 C 137.988281 197.050781 137.46875 197.523438 136.929688 197.964844 C 136.386719 198.410156 135.824219 198.828125 135.242188 199.214844 C 134.660156 199.605469 134.0625 199.964844 133.441406 200.296875 C 132.824219 200.625 132.191406 200.925781 131.546875 201.191406 C 130.898438 201.460938 130.238281 201.695312 129.570312 201.898438 C 128.898438 202.101562 128.21875 202.273438 127.535156 202.410156 C 126.847656 202.546875 126.15625 202.648438 125.457031 202.71875 C 124.761719 202.785156 124.0625 202.820312 123.359375 202.820312 C 122.660156 202.820312 121.960938 202.785156 121.265625 202.71875 C 120.566406 202.648438 119.875 202.546875 119.1875 202.410156 C 118.5 202.273438 117.824219 202.101562 117.152344 201.898438 C 116.480469 201.695312 115.824219 201.460938 115.175781 201.191406 C 114.527344 200.925781 113.898438 200.625 113.277344 200.296875 C 112.660156 199.964844 112.0625 199.605469 111.480469 199.214844 C 110.894531 198.828125 110.335938 198.410156 109.792969 197.964844 C 109.25 197.523438 108.734375 197.050781 108.238281 196.554688 C 107.742188 196.0625 107.273438 195.542969 106.828125 195 C 106.382812 194.460938 105.96875 193.898438 105.578125 193.316406 C 105.1875 192.734375 104.828125 192.132812 104.5 191.515625 C 104.167969 190.898438 103.871094 190.265625 103.601562 189.617188 C 103.332031 188.96875 103.097656 188.3125 102.894531 187.640625 C 102.691406 186.972656 102.519531 186.292969 102.382812 185.605469 C 102.246094 184.917969 102.144531 184.226562 102.078125 183.53125 C 102.007812 182.832031 101.972656 182.132812 101.972656 181.433594 C 101.972656 180.734375 102.007812 180.035156 102.078125 179.335938 C 102.144531 178.640625 102.246094 177.949219 102.382812 177.261719 C 102.519531 176.574219 102.691406 175.894531 102.894531 175.226562 C 103.097656 174.554688 103.332031 173.894531 103.601562 173.25 C 103.871094 172.601562 104.167969 171.96875 104.5 171.351562 C 104.828125 170.734375 105.1875 170.132812 105.578125 169.550781 C 105.96875 168.96875 106.382812 168.40625 106.828125 167.863281 C 107.273438 167.324219 107.742188 166.804688 108.238281 166.308594 C 108.734375 165.816406 109.25 165.34375 109.792969 164.902344 C 110.335938 164.457031 110.894531 164.039062 111.480469 163.648438 C 112.0625 163.261719 112.660156 162.902344 113.277344 162.570312 C 113.898438 162.242188 114.527344 161.941406 115.175781 161.671875 C 115.824219 161.40625 116.480469 161.171875 117.152344 160.964844 C 117.824219 160.761719 118.5 160.59375 119.1875 160.457031 C 119.875 160.320312 120.566406 160.21875 121.265625 160.148438 C 121.960938 160.082031 122.660156 160.046875 123.359375 160.046875 C 124.0625 160.046875 124.761719 160.082031 125.457031 160.148438 C 126.15625 160.21875 126.847656 160.320312 127.535156 160.457031 C 128.21875 160.59375 128.898438 160.761719 129.570312 160.964844 C 130.238281 161.171875 130.898438 161.40625 131.546875 161.671875 C 132.191406 161.941406 132.824219 162.242188 133.441406 162.570312 C 134.0625 162.902344 134.660156 163.261719 135.242188 163.648438 C 135.824219 164.039062 136.386719 164.457031 136.929688 164.902344 C 137.46875 165.34375 137.988281 165.816406 138.484375 166.308594 C 138.980469 166.804688 139.449219 167.324219 139.894531 167.863281 C 140.339844 168.40625 140.753906 168.96875 141.144531 169.550781 C 141.53125 170.132812 141.894531 170.734375 142.222656 171.351562 C 142.554688 171.96875 142.851562 172.601562 143.121094 173.25 C 143.386719 173.894531 143.625 174.554688 143.828125 175.226562 C 144.03125 175.894531 144.199219 176.574219 144.335938 177.261719 C 144.472656 177.949219 144.578125 178.640625 144.644531 179.335938 C 144.714844 180.035156 144.75 180.734375 144.75 181.433594 Z M 144.75 181.433594 " fill-opacity="1" fill-rule="nonzero"/></g></svg>