<svg xmlns="http://www.w3.org/2000/svg" xmlns:xlink="http://www.w3.org/1999/xlink" width="500" zoomAndPan="magnify" viewBox="40 115 300 145" height="500" preserveAspectRatio="xMidYMid meet" version="1.0"><defs><clipPath id="d2e3f62854"><path d="M 50.449219 122.375 L 151 122.375 L 151 252.875 L 50.449219 252.875 Z M 50.449219 122.375 " clip-rule="nonzero"/></clipPath><clipPath id="63c4c4d02c"><path d="M 128 122.375 L 230 122.375 L 230 252.875 L 128 252.875 Z M 128 122.375 " clip-rule="nonzero"/></clipPath><clipPath id="f37a0ba816"><path d="M 207 122.375 L 337.699219 122.375 L 337.699219 252.875 L 207 252.875 Z M 207 122.375 " clip-rule="nonzero"/></clipPath></defs><g clip-path="url(#d2e3f62854)"><path fill="#eeede9" d="M 50.449219 187.496094 C 50.449219 223.394531 79.652344 252.597656 115.550781 252.597656 C 128.605469 252.597656 140.757812 248.722656 150.960938 242.082031 C 134.816406 229.335938 124.425781 209.609375 124.425781 187.496094 C 124.425781 165.382812 134.816406 145.65625 150.960938 132.910156 C 140.765625 126.269531 128.605469 122.394531 115.550781 122.394531 C 79.652344 122.394531 50.449219 151.597656 50.449219 187.496094 Z M 50.449219 187.496094 " fill-opacity="1" fill-rule="nonzero"/></g><g clip-path="url(#63c4c4d02c)"><path fill="#eeede9" d="M 128.871094 187.496094 C 128.871094 223.394531 158.074219 252.597656 193.972656 252.597656 C 207.027344 252.597656 219.183594 248.722656 229.382812 242.082031 C 213.238281 229.335938 202.847656 209.609375 202.847656 187.496094 C 202.847656 165.382812 213.238281 145.65625 229.382812 132.910156 C 219.183594 126.269531 207.027344 122.394531 193.972656 122.394531 C 158.074219 122.394531 128.871094 151.597656 128.871094 187.496094 Z M 128.871094 187.496094 " fill-opacity="1" fill-rule="nonzero"/></g><g clip-path="url(#f37a0ba816)"><path fill="#eeede9" d="M 337.5 187.496094 C 337.5 188.5625 337.472656 189.625 337.421875 190.691406 C 337.367188 191.753906 337.289062 192.816406 337.183594 193.878906 C 337.082031 194.9375 336.949219 195.996094 336.792969 197.046875 C 336.636719 198.101562 336.457031 199.152344 336.246094 200.195312 C 336.039062 201.242188 335.804688 202.28125 335.546875 203.316406 C 335.289062 204.347656 335.003906 205.375 334.695312 206.394531 C 334.386719 207.414062 334.050781 208.425781 333.691406 209.429688 C 333.332031 210.433594 332.949219 211.425781 332.542969 212.410156 C 332.136719 213.394531 331.703125 214.367188 331.246094 215.332031 C 330.792969 216.292969 330.3125 217.246094 329.8125 218.183594 C 329.308594 219.125 328.785156 220.050781 328.234375 220.964844 C 327.6875 221.878906 327.117188 222.78125 326.527344 223.664062 C 325.933594 224.550781 325.320312 225.421875 324.6875 226.277344 C 324.050781 227.132812 323.398438 227.972656 322.71875 228.796875 C 322.042969 229.621094 321.347656 230.425781 320.632812 231.214844 C 319.917969 232.007812 319.183594 232.777344 318.429688 233.53125 C 317.675781 234.285156 316.90625 235.019531 316.117188 235.734375 C 315.328125 236.449219 314.519531 237.144531 313.695312 237.820312 C 312.871094 238.496094 312.03125 239.152344 311.175781 239.789062 C 310.320312 240.421875 309.449219 241.035156 308.566406 241.628906 C 307.679688 242.21875 306.777344 242.789062 305.863281 243.335938 C 304.949219 243.882812 304.023438 244.410156 303.085938 244.910156 C 302.144531 245.414062 301.195312 245.894531 300.230469 246.347656 C 299.265625 246.804688 298.292969 247.234375 297.308594 247.644531 C 296.324219 248.050781 295.332031 248.433594 294.328125 248.792969 C 293.324219 249.152344 292.3125 249.488281 291.292969 249.796875 C 290.273438 250.105469 289.246094 250.390625 288.214844 250.648438 C 287.179688 250.90625 286.140625 251.140625 285.097656 251.347656 C 284.050781 251.554688 283 251.738281 281.949219 251.894531 C 280.894531 252.050781 279.835938 252.179688 278.777344 252.285156 C 277.714844 252.390625 276.652344 252.46875 275.589844 252.519531 C 274.527344 252.574219 273.460938 252.597656 272.394531 252.597656 C 271.328125 252.597656 270.265625 252.574219 269.199219 252.519531 C 268.136719 252.46875 267.074219 252.390625 266.015625 252.285156 C 264.953125 252.179688 263.898438 252.050781 262.84375 251.894531 C 261.789062 251.738281 260.738281 251.554688 259.695312 251.347656 C 258.648438 251.140625 257.609375 250.90625 256.578125 250.648438 C 255.542969 250.390625 254.515625 250.105469 253.496094 249.796875 C 252.476562 249.488281 251.464844 249.152344 250.460938 248.792969 C 249.460938 248.433594 248.464844 248.050781 247.480469 247.644531 C 246.496094 247.234375 245.523438 246.804688 244.558594 246.347656 C 243.597656 245.894531 242.644531 245.414062 241.707031 244.910156 C 240.765625 244.410156 239.839844 243.882812 238.925781 243.335938 C 238.011719 242.789062 237.113281 242.21875 236.226562 241.628906 C 235.339844 241.035156 234.46875 240.421875 233.613281 239.789062 C 232.757812 239.152344 231.917969 238.496094 231.09375 237.820312 C 230.269531 237.144531 229.464844 236.449219 228.675781 235.734375 C 227.886719 235.019531 227.113281 234.285156 226.359375 233.53125 C 225.605469 232.777344 224.871094 232.007812 224.15625 231.214844 C 223.441406 230.425781 222.746094 229.621094 222.070312 228.796875 C 221.394531 227.972656 220.738281 227.132812 220.105469 226.277344 C 219.46875 225.421875 218.855469 224.550781 218.265625 223.664062 C 217.671875 222.78125 217.101562 221.878906 216.554688 220.964844 C 216.007812 220.050781 215.480469 219.125 214.980469 218.183594 C 214.476562 217.246094 214 216.292969 213.542969 215.332031 C 213.085938 214.367188 212.65625 213.394531 212.246094 212.410156 C 211.839844 211.425781 211.457031 210.433594 211.097656 209.429688 C 210.738281 208.425781 210.40625 207.414062 210.09375 206.394531 C 209.785156 205.375 209.503906 204.347656 209.242188 203.316406 C 208.984375 202.28125 208.75 201.242188 208.542969 200.195312 C 208.335938 199.152344 208.152344 198.101562 207.996094 197.046875 C 207.839844 195.996094 207.710938 194.9375 207.605469 193.878906 C 207.5 192.816406 207.421875 191.753906 207.371094 190.691406 C 207.316406 189.625 207.292969 188.5625 207.292969 187.496094 C 207.292969 186.429688 207.316406 185.367188 207.371094 184.300781 C 207.421875 183.238281 207.5 182.175781 207.605469 181.113281 C 207.710938 180.054688 207.839844 178.996094 207.996094 177.945312 C 208.152344 176.890625 208.335938 175.839844 208.542969 174.796875 C 208.75 173.75 208.984375 172.710938 209.242188 171.675781 C 209.503906 170.644531 209.785156 169.617188 210.09375 168.597656 C 210.40625 167.578125 210.738281 166.566406 211.097656 165.5625 C 211.457031 164.558594 211.839844 163.566406 212.246094 162.582031 C 212.65625 161.597656 213.085938 160.625 213.542969 159.660156 C 214 158.699219 214.476562 157.746094 214.980469 156.808594 C 215.480469 155.867188 216.007812 154.941406 216.554688 154.027344 C 217.101562 153.113281 217.671875 152.210938 218.265625 151.328125 C 218.855469 150.441406 219.46875 149.570312 220.105469 148.714844 C 220.738281 147.859375 221.394531 147.019531 222.070312 146.195312 C 222.746094 145.371094 223.441406 144.566406 224.15625 143.777344 C 224.871094 142.984375 225.605469 142.214844 226.359375 141.460938 C 227.113281 140.707031 227.886719 139.972656 228.675781 139.257812 C 229.464844 138.542969 230.269531 137.847656 231.09375 137.171875 C 231.917969 136.496094 232.757812 135.839844 233.613281 135.203125 C 234.46875 134.570312 235.339844 133.957031 236.226562 133.363281 C 237.113281 132.773438 238.011719 132.203125 238.925781 131.65625 C 239.839844 131.109375 240.765625 130.582031 241.707031 130.082031 C 242.644531 129.578125 243.597656 129.097656 244.558594 128.644531 C 245.523438 128.1875 246.496094 127.757812 247.480469 127.347656 C 248.464844 126.941406 249.460938 126.558594 250.460938 126.199219 C 251.464844 125.839844 252.476562 125.503906 253.496094 125.195312 C 254.515625 124.886719 255.542969 124.601562 256.578125 124.34375 C 257.609375 124.085938 258.648438 123.851562 259.695312 123.644531 C 260.738281 123.4375 261.789062 123.253906 262.84375 123.097656 C 263.898438 122.941406 264.953125 122.8125 266.015625 122.707031 C 267.074219 122.601562 268.136719 122.523438 269.199219 122.472656 C 270.265625 122.417969 271.328125 122.394531 272.394531 122.394531 C 273.460938 122.394531 274.527344 122.417969 275.589844 122.472656 C 276.652344 122.523438 277.714844 122.601562 278.777344 122.707031 C 279.835938 122.8125 280.894531 122.941406 281.949219 123.097656 C 283 123.253906 284.050781 123.4375 285.097656 123.644531 C 286.140625 123.851562 287.179688 124.085938 288.214844 124.34375 C 289.246094 124.601562 290.273438 124.886719 291.292969 125.195312 C 292.3125 125.503906 293.324219 125.839844 294.328125 126.199219 C 295.332031 126.558594 296.324219 126.941406 297.308594 127.347656 C 298.292969 127.757812 299.265625 128.1875 300.230469 128.644531 C 301.195312 129.097656 302.144531 129.578125 303.085938 130.082031 C 304.023438 130.582031 304.949219 131.109375 305.863281 131.65625 C 306.777344 132.203125 307.679688 132.773438 308.566406 133.363281 C 309.449219 133.957031 310.320312 134.570312 311.175781 135.203125 C 312.03125 135.839844 312.871094 136.496094 313.695312 137.171875 C 314.519531 137.847656 315.328125 138.542969 316.117188 139.257812 C 316.90625 139.972656 317.675781 140.707031 318.429688 141.460938 C 319.183594 142.214844 319.917969 142.984375 320.632812 143.777344 C 321.347656 144.566406 322.042969 145.371094 322.71875 146.195312 C 323.398438 147.019531 324.050781 147.859375 324.6875 148.714844 C 325.320312 149.570312 325.933594 150.441406 326.527344 151.328125 C 327.117188 152.210938 327.6875 153.113281 328.234375 154.027344 C 328.785156 154.941406 329.308594 155.867188 329.8125 156.808594 C 330.3125 157.746094 330.792969 158.699219 331.246094 159.660156 C 331.703125 160.625 332.136719 161.597656 332.542969 162.582031 C 332.949219 163.566406 333.332031 164.558594 333.691406 165.5625 C 334.050781 166.566406 334.386719 167.578125 334.695312 168.597656 C 335.003906 169.617188 335.289062 170.644531 335.546875 171.675781 C 335.804688 172.710938 336.039062 173.75 336.246094 174.796875 C 336.457031 175.839844 336.636719 176.890625 336.792969 177.945312 C 336.949219 178.996094 337.082031 180.054688 337.183594 181.113281 C 337.289062 182.175781 337.367188 183.238281 337.421875 184.300781 C 337.472656 185.367188 337.5 186.429688 337.5 187.496094 Z M 337.5 187.496094 " fill-opacity="1" fill-rule="nonzero"/></g></svg>