<svg xmlns="http://www.w3.org/2000/svg" xmlns:xlink="http://www.w3.org/1999/xlink" width="500" zoomAndPan="magnify" viewBox="0 145 345 75" height="500" preserveAspectRatio="xMidYMid meet" version="1.0"><defs><g/><clipPath id="226aed5c16"><rect x="0" width="113" y="0" height="66"/></clipPath><clipPath id="95b807d3d9"><path d="M 229 0.800781 L 317.71875 0.800781 L 317.71875 80.71875 L 229 80.71875 Z M 229 0.800781 " clip-rule="nonzero"/></clipPath><clipPath id="6aff012f81"><rect x="0" width="89" y="0" height="81"/></clipPath><clipPath id="73cd59fb37"><path d="M 1.324219 11.601562 L 42 11.601562 L 42 63.183594 L 1.324219 63.183594 Z M 1.324219 11.601562 " clip-rule="nonzero"/></clipPath><clipPath id="d55c2ff348"><path d="M 32 11.601562 L 73 11.601562 L 73 63.183594 L 32 63.183594 Z M 32 11.601562 " clip-rule="nonzero"/></clipPath><clipPath id="b4c86f2525"><path d="M 63 11.601562 L 115.34375 11.601562 L 115.34375 63.183594 L 63 63.183594 Z M 63 11.601562 " clip-rule="nonzero"/></clipPath><clipPath id="44e06e2a06"><rect x="0" width="318" y="0" height="81"/></clipPath></defs><g transform="matrix(1, 0, 0, 1, 13, 154)"><g clip-path="url(#44e06e2a06)"><g transform="matrix(1, 0, 0, 1, 118, 12)"><g clip-path="url(#226aed5c16)"><g fill="#1b1b1b" fill-opacity="1"><g transform="translate(0.695844, 46.843375)"><g><path d="M 43.84375 -33.515625 C 43.84375 -30.878906 42.800781 -28.414062 40.71875 -26.125 C 38.632812 -23.832031 35.46875 -22.238281 31.21875 -21.34375 L 38.234375 -6.5625 C 39.117188 -4.695312 40.050781 -3.335938 41.03125 -2.484375 C 42.007812 -1.628906 43.429688 -1.179688 45.296875 -1.140625 L 44.921875 0 L 34.796875 0 L 24.90625 -20.90625 C 23.34375 -21.03125 22.347656 -21.132812 21.921875 -21.21875 C 21.753906 -21.21875 21.328125 -21.257812 20.640625 -21.34375 L 16.953125 -8.34375 C 16.828125 -8.050781 16.65625 -7.46875 16.4375 -6.59375 C 16.226562 -5.71875 16.125 -4.984375 16.125 -4.390625 C 16.125 -3.078125 16.585938 -2.207031 17.515625 -1.78125 C 18.453125 -1.351562 19.664062 -1.140625 21.15625 -1.140625 L 20.84375 0 L 1.59375 0 L 1.90625 -1.140625 C 4.332031 -1.140625 6.097656 -1.445312 7.203125 -2.0625 C 8.304688 -2.6875 9.15625 -3.992188 9.75 -5.984375 L 17.78125 -33.765625 C 18.207031 -35.253906 18.503906 -36.335938 18.671875 -37.015625 C 18.835938 -37.703125 18.921875 -38.210938 18.921875 -38.546875 C 18.921875 -39.953125 18.453125 -40.851562 17.515625 -41.25 C 16.585938 -41.65625 15.296875 -41.859375 13.640625 -41.859375 L 13.953125 -43.015625 L 29.1875 -43.015625 C 33.9375 -43.015625 37.566406 -42.128906 40.078125 -40.359375 C 42.585938 -38.597656 43.84375 -36.316406 43.84375 -33.515625 Z M 26.125 -40.46875 L 21.21875 -23.1875 C 22.445312 -22.9375 23.785156 -22.8125 25.234375 -22.8125 C 27.785156 -22.8125 29.929688 -23.332031 31.671875 -24.375 C 33.410156 -25.414062 34.691406 -26.753906 35.515625 -28.390625 C 36.347656 -30.023438 36.765625 -31.753906 36.765625 -33.578125 C 36.765625 -35.953125 36.0625 -37.734375 34.65625 -38.921875 C 33.257812 -40.117188 31.4375 -40.71875 29.1875 -40.71875 C 28.5 -40.71875 27.476562 -40.632812 26.125 -40.46875 Z M 26.125 -40.46875 "/></g></g></g><g fill="#1b1b1b" fill-opacity="1"><g transform="translate(41.152681, 46.843375)"><g><path d="M 20.640625 -29.125 C 22.429688 -29.125 23.929688 -28.675781 25.140625 -27.78125 C 26.347656 -26.882812 26.953125 -25.738281 26.953125 -24.34375 C 26.953125 -22.976562 26.3125 -21.425781 25.03125 -19.6875 C 23.757812 -17.945312 21.691406 -16.40625 18.828125 -15.0625 C 15.960938 -13.726562 12.320312 -13 7.90625 -12.875 C 7.644531 -12.019531 7.515625 -10.976562 7.515625 -9.75 C 7.515625 -7.15625 8.210938 -5.273438 9.609375 -4.109375 C 11.015625 -2.941406 12.566406 -2.359375 14.265625 -2.359375 C 17.117188 -2.359375 20.007812 -3.78125 22.9375 -6.625 L 23.765625 -5.859375 C 19.222656 -1.441406 14.828125 0.765625 10.578125 0.765625 C 8.835938 0.765625 7.316406 0.332031 6.015625 -0.53125 C 4.722656 -1.40625 3.75 -2.539062 3.09375 -3.9375 C 2.4375 -5.34375 2.109375 -6.789062 2.109375 -8.28125 C 2.109375 -11.257812 2.96875 -14.382812 4.6875 -17.65625 C 6.40625 -20.925781 8.695312 -23.65625 11.5625 -25.84375 C 14.425781 -28.03125 17.453125 -29.125 20.640625 -29.125 Z M 8.28125 -14.078125 C 11.164062 -14.296875 13.503906 -14.785156 15.296875 -15.546875 C 17.035156 -16.304688 18.445312 -17.289062 19.53125 -18.5 C 20.613281 -19.71875 21.390625 -20.910156 21.859375 -22.078125 C 22.328125 -23.242188 22.5625 -24.210938 22.5625 -24.984375 C 22.5625 -25.703125 22.296875 -26.367188 21.765625 -26.984375 C 21.234375 -27.597656 20.476562 -27.90625 19.5 -27.90625 C 17.800781 -27.90625 16.15625 -27.117188 14.5625 -25.546875 C 12.96875 -23.972656 11.609375 -22.101562 10.484375 -19.9375 C 9.359375 -17.769531 8.625 -15.816406 8.28125 -14.078125 Z M 8.28125 -14.078125 "/></g></g></g><g fill="#1b1b1b" fill-opacity="1"><g transform="translate(64.59853, 46.843375)"><g><path d="M 19.8125 -29.125 C 20.957031 -29.125 22 -28.726562 22.9375 -27.9375 C 23.875 -27.15625 24.445312 -26.0625 24.65625 -24.65625 L 24.78125 -24.65625 L 25.8125 -28.421875 L 30.84375 -29.125 L 24.28125 -6.109375 C 24.238281 -6.023438 24.128906 -5.707031 23.953125 -5.15625 C 23.785156 -4.601562 23.703125 -4.050781 23.703125 -3.5 C 23.703125 -3.164062 23.785156 -2.898438 23.953125 -2.703125 C 24.128906 -2.515625 24.320312 -2.421875 24.53125 -2.421875 C 25.082031 -2.421875 25.78125 -2.800781 26.625 -3.5625 C 27.476562 -4.332031 28.289062 -5.394531 29.0625 -6.75 L 30.015625 -6.109375 C 28.867188 -3.992188 27.410156 -2.316406 25.640625 -1.078125 C 23.878906 0.148438 22.320312 0.765625 20.96875 0.765625 C 20.195312 0.765625 19.617188 0.488281 19.234375 -0.0625 C 18.859375 -0.613281 18.671875 -1.296875 18.671875 -2.109375 C 18.671875 -2.660156 18.785156 -3.5625 19.015625 -4.8125 C 19.253906 -6.0625 19.628906 -7.328125 20.140625 -8.609375 L 20 -8.734375 C 15.25 -2.398438 10.941406 0.765625 7.078125 0.765625 C 5.378906 0.765625 4.03125 0.0351562 3.03125 -1.421875 C 2.03125 -2.890625 1.53125 -4.582031 1.53125 -6.5 C 1.53125 -9.8125 2.492188 -13.238281 4.421875 -16.78125 C 6.359375 -20.332031 8.757812 -23.273438 11.625 -25.609375 C 14.5 -27.953125 17.226562 -29.125 19.8125 -29.125 Z M 6.625 -7.703125 C 6.625 -6.046875 7.003906 -4.835938 7.765625 -4.078125 C 8.535156 -3.316406 9.429688 -2.9375 10.453125 -2.9375 C 11.765625 -2.9375 13.1875 -3.53125 14.71875 -4.71875 C 16.25 -5.90625 17.660156 -7.421875 18.953125 -9.265625 C 20.253906 -11.117188 21.222656 -13 21.859375 -14.90625 C 22.492188 -16.78125 22.957031 -18.320312 23.25 -19.53125 C 23.550781 -20.738281 23.703125 -21.914062 23.703125 -23.0625 C 23.703125 -24.71875 23.316406 -25.9375 22.546875 -26.71875 C 21.785156 -27.507812 20.894531 -27.90625 19.875 -27.90625 C 17.882812 -27.90625 15.859375 -26.679688 13.796875 -24.234375 C 11.734375 -21.796875 10.019531 -18.941406 8.65625 -15.671875 C 7.300781 -12.398438 6.625 -9.742188 6.625 -7.703125 Z M 6.625 -7.703125 "/></g></g></g><g fill="#1b1b1b" fill-opacity="1"><g transform="translate(91.994504, 46.843375)"><g><path d="M 8.859375 -7.140625 C 8.554688 -6.117188 8.332031 -5.300781 8.1875 -4.6875 C 8.039062 -4.070312 7.96875 -3.550781 7.96875 -3.125 C 7.96875 -2.820312 8.039062 -2.597656 8.1875 -2.453125 C 8.332031 -2.304688 8.472656 -2.234375 8.609375 -2.234375 C 9.109375 -2.234375 9.972656 -2.847656 11.203125 -4.078125 C 12.441406 -5.304688 13.210938 -6.175781 13.515625 -6.6875 L 14.53125 -6.109375 C 13.164062 -4.242188 11.675781 -2.628906 10.0625 -1.265625 C 8.445312 0.0859375 6.941406 0.765625 5.546875 0.765625 C 3.847656 0.765625 3 -0.234375 3 -2.234375 C 3 -3.035156 3.164062 -4.03125 3.5 -5.21875 C 3.84375 -6.414062 4.078125 -7.203125 4.203125 -7.578125 L 13.25 -39.0625 C 13.507812 -40.039062 13.640625 -40.804688 13.640625 -41.359375 C 13.640625 -41.910156 13.445312 -42.351562 13.0625 -42.6875 C 12.675781 -43.03125 12.1875 -43.203125 11.59375 -43.203125 C 10.789062 -43.203125 10.070312 -43.140625 9.4375 -43.015625 L 9.4375 -44.21875 L 18.796875 -45.6875 L 19.875 -45.6875 L 9.6875 -10 C 9.257812 -8.46875 8.984375 -7.515625 8.859375 -7.140625 Z M 8.859375 -7.140625 "/></g></g></g></g></g><g clip-path="url(#95b807d3d9)"><g transform="matrix(1, 0, 0, 1, 229, 0)"><g clip-path="url(#6aff012f81)"><g fill="#1b1b1b" fill-opacity="1"><g transform="translate(1.062762, 59.826892)"><g><path d="M 4.96875 0 L 4.96875 -41.171875 L 23.1875 -41.171875 C 26.226562 -41.171875 28.804688 -40.664062 30.921875 -39.65625 C 33.046875 -38.644531 34.660156 -37.175781 35.765625 -35.25 C 36.878906 -33.320312 37.4375 -30.992188 37.4375 -28.265625 C 37.4375 -25.617188 36.878906 -23.320312 35.765625 -21.375 C 34.660156 -19.425781 33.046875 -17.925781 30.921875 -16.875 C 28.804688 -15.820312 26.226562 -15.296875 23.1875 -15.296875 L 12.671875 -15.296875 L 12.671875 0 Z M 12.671875 -21.4375 L 21.953125 -21.4375 C 24.566406 -21.4375 26.546875 -22 27.890625 -23.125 C 29.234375 -24.257812 29.90625 -25.972656 29.90625 -28.265625 C 29.90625 -30.523438 29.234375 -32.207031 27.890625 -33.3125 C 26.546875 -34.425781 24.566406 -34.984375 21.953125 -34.984375 L 12.671875 -34.984375 Z M 12.671875 -21.4375 "/></g></g></g><g fill="#1b1b1b" fill-opacity="1"><g transform="translate(35.400483, 59.826892)"><g><path d="M 4.140625 0 L 4.140625 -28.859375 L 11.21875 -28.859375 L 11.21875 -21.84375 L 10.984375 -21.84375 C 11.566406 -24.101562 12.664062 -25.875 14.28125 -27.15625 C 15.894531 -28.445312 17.988281 -29.164062 20.5625 -29.3125 L 23.296875 -29.546875 L 23.828125 -22.890625 L 19.09375 -22.484375 C 16.71875 -22.253906 14.90625 -21.492188 13.65625 -20.203125 C 12.414062 -18.921875 11.796875 -17.207031 11.796875 -15.0625 L 11.796875 0 Z M 4.140625 0 "/></g></g></g><g fill="#1b1b1b" fill-opacity="1"><g transform="translate(54.788309, 59.826892)"><g><path d="M 17.515625 0.578125 C 14.484375 0.578125 11.847656 -0.03125 9.609375 -1.25 C 7.367188 -2.476562 5.632812 -4.222656 4.40625 -6.484375 C 3.175781 -8.742188 2.5625 -11.390625 2.5625 -14.421875 C 2.5625 -17.503906 3.175781 -20.160156 4.40625 -22.390625 C 5.632812 -24.628906 7.367188 -26.363281 9.609375 -27.59375 C 11.847656 -28.820312 14.484375 -29.4375 17.515625 -29.4375 C 20.597656 -29.4375 23.25 -28.820312 25.46875 -27.59375 C 27.6875 -26.363281 29.40625 -24.617188 30.625 -22.359375 C 31.851562 -20.109375 32.46875 -17.460938 32.46875 -14.421875 C 32.46875 -11.390625 31.851562 -8.742188 30.625 -6.484375 C 29.40625 -4.222656 27.6875 -2.476562 25.46875 -1.25 C 23.25 -0.03125 20.597656 0.578125 17.515625 0.578125 Z M 17.515625 -5.375 C 19.816406 -5.375 21.628906 -6.160156 22.953125 -7.734375 C 24.273438 -9.316406 24.9375 -11.566406 24.9375 -14.484375 C 24.9375 -17.398438 24.273438 -19.628906 22.953125 -21.171875 C 21.628906 -22.710938 19.816406 -23.484375 17.515625 -23.484375 C 15.265625 -23.484375 13.46875 -22.710938 12.125 -21.171875 C 10.78125 -19.628906 10.109375 -17.398438 10.109375 -14.484375 C 10.109375 -11.566406 10.78125 -9.316406 12.125 -7.734375 C 13.46875 -6.160156 15.265625 -5.375 17.515625 -5.375 Z M 17.515625 -5.375 "/></g></g></g></g></g></g><g clip-path="url(#73cd59fb37)"><path fill="#1b1b1b" d="M 1.324219 37.414062 C 1.324219 51.644531 12.898438 63.21875 27.128906 63.21875 C 32.304688 63.21875 37.121094 61.683594 41.164062 59.050781 C 34.765625 54 30.648438 46.179688 30.648438 37.414062 C 30.648438 28.648438 34.765625 20.828125 41.164062 15.777344 C 37.125 13.144531 32.304688 11.609375 27.128906 11.609375 C 12.898438 11.609375 1.324219 23.183594 1.324219 37.414062 Z M 1.324219 37.414062 " fill-opacity="1" fill-rule="nonzero"/></g><g clip-path="url(#d55c2ff348)"><path fill="#1b1b1b" d="M 32.410156 37.414062 C 32.410156 51.644531 43.984375 63.21875 58.214844 63.21875 C 63.390625 63.21875 68.207031 61.683594 72.25 59.050781 C 65.851562 54 61.730469 46.179688 61.730469 37.414062 C 61.730469 28.648438 65.851562 20.828125 72.25 15.777344 C 68.207031 13.144531 63.390625 11.609375 58.214844 11.609375 C 43.984375 11.609375 32.410156 23.183594 32.410156 37.414062 Z M 32.410156 37.414062 " fill-opacity="1" fill-rule="nonzero"/></g><g clip-path="url(#b4c86f2525)"><path fill="#1b1b1b" d="M 115.105469 37.414062 C 115.105469 38.257812 115.0625 39.101562 114.980469 39.945312 C 114.898438 40.785156 114.773438 41.621094 114.609375 42.449219 C 114.445312 43.277344 114.238281 44.097656 113.992188 44.90625 C 113.75 45.714844 113.464844 46.507812 113.140625 47.289062 C 112.816406 48.070312 112.457031 48.832031 112.058594 49.578125 C 111.660156 50.324219 111.226562 51.046875 110.757812 51.75 C 110.285156 52.453125 109.785156 53.132812 109.246094 53.785156 C 108.710938 54.4375 108.144531 55.0625 107.546875 55.660156 C 106.949219 56.257812 106.324219 56.828125 105.671875 57.363281 C 105.015625 57.898438 104.339844 58.402344 103.636719 58.871094 C 102.933594 59.339844 102.210938 59.773438 101.464844 60.171875 C 100.71875 60.570312 99.957031 60.933594 99.175781 61.257812 C 98.394531 61.578125 97.597656 61.863281 96.789062 62.109375 C 95.980469 62.355469 95.164062 62.558594 94.332031 62.722656 C 93.503906 62.890625 92.667969 63.011719 91.828125 63.097656 C 90.988281 63.179688 90.144531 63.21875 89.300781 63.21875 C 88.453125 63.21875 87.609375 63.179688 86.769531 63.097656 C 85.929688 63.011719 85.09375 62.890625 84.265625 62.722656 C 83.4375 62.558594 82.617188 62.355469 81.808594 62.109375 C 81 61.863281 80.203125 61.578125 79.425781 61.257812 C 78.644531 60.933594 77.878906 60.570312 77.132812 60.171875 C 76.390625 59.773438 75.664062 59.339844 74.960938 58.871094 C 74.257812 58.402344 73.582031 57.898438 72.929688 57.363281 C 72.273438 56.828125 71.648438 56.257812 71.050781 55.660156 C 70.453125 55.0625 69.886719 54.4375 69.351562 53.785156 C 68.816406 53.132812 68.3125 52.453125 67.84375 51.75 C 67.375 51.046875 66.9375 50.324219 66.539062 49.578125 C 66.140625 48.832031 65.78125 48.070312 65.457031 47.289062 C 65.132812 46.507812 64.851562 45.714844 64.605469 44.90625 C 64.359375 44.097656 64.15625 43.277344 63.988281 42.449219 C 63.824219 41.621094 63.699219 40.785156 63.617188 39.945312 C 63.535156 39.101562 63.492188 38.257812 63.492188 37.414062 C 63.492188 36.570312 63.535156 35.726562 63.617188 34.886719 C 63.699219 34.042969 63.824219 33.207031 63.988281 32.378906 C 64.15625 31.550781 64.359375 30.730469 64.605469 29.921875 C 64.851562 29.113281 65.132812 28.320312 65.457031 27.539062 C 65.78125 26.757812 66.140625 25.996094 66.539062 25.25 C 66.9375 24.503906 67.375 23.78125 67.84375 23.078125 C 68.3125 22.375 68.816406 21.695312 69.351562 21.042969 C 69.886719 20.390625 70.453125 19.765625 71.050781 19.167969 C 71.648438 18.570312 72.273438 18.003906 72.929688 17.464844 C 73.582031 16.929688 74.257812 16.425781 74.960938 15.957031 C 75.664062 15.488281 76.390625 15.054688 77.132812 14.65625 C 77.878906 14.257812 78.644531 13.894531 79.425781 13.574219 C 80.203125 13.25 81 12.964844 81.808594 12.71875 C 82.617188 12.472656 83.4375 12.269531 84.265625 12.105469 C 85.09375 11.941406 85.929688 11.816406 86.769531 11.734375 C 87.609375 11.648438 88.453125 11.609375 89.300781 11.609375 C 90.144531 11.609375 90.988281 11.648438 91.828125 11.734375 C 92.667969 11.816406 93.503906 11.941406 94.332031 12.105469 C 95.164062 12.269531 95.980469 12.472656 96.789062 12.71875 C 97.597656 12.964844 98.394531 13.25 99.175781 13.574219 C 99.957031 13.894531 100.71875 14.257812 101.464844 14.65625 C 102.210938 15.054688 102.933594 15.488281 103.636719 15.957031 C 104.339844 16.425781 105.015625 16.929688 105.671875 17.464844 C 106.324219 18.003906 106.949219 18.570312 107.546875 19.167969 C 108.144531 19.765625 108.710938 20.390625 109.246094 21.042969 C 109.785156 21.695312 110.285156 22.375 110.757812 23.078125 C 111.226562 23.78125 111.660156 24.503906 112.058594 25.25 C 112.457031 25.996094 112.816406 26.757812 113.140625 27.539062 C 113.464844 28.320312 113.75 29.113281 113.992188 29.921875 C 114.238281 30.730469 114.445312 31.550781 114.609375 32.378906 C 114.773438 33.207031 114.898438 34.042969 114.980469 34.886719 C 115.0625 35.726562 115.105469 36.570312 115.105469 37.414062 Z M 115.105469 37.414062 " fill-opacity="1" fill-rule="nonzero"/></g></g></g></svg>