<svg xmlns="http://www.w3.org/2000/svg" xmlns:xlink="http://www.w3.org/1999/xlink" width="500" zoomAndPan="magnify" viewBox="0 0 375 374.999991" height="500" preserveAspectRatio="xMidYMid meet" version="1.0"><defs><g/><clipPath id="598f7cb1c8"><path d="M 95 1 L 112.878906 1 L 112.878906 48 L 95 48 Z M 95 1 " clip-rule="nonzero"/></clipPath><clipPath id="1ea9036dd3"><rect x="0" width="113" y="0" height="66"/></clipPath><clipPath id="20d04d425d"><rect x="0" width="88" y="0" height="81"/></clipPath><clipPath id="db6970598c"><path d="M 19.679688 165.601562 L 60 165.601562 L 60 217.351562 L 19.679688 217.351562 Z M 19.679688 165.601562 " clip-rule="nonzero"/></clipPath><clipPath id="5ec38620f4"><path d="M 50 165.601562 L 91 165.601562 L 91 217.351562 L 50 217.351562 Z M 50 165.601562 " clip-rule="nonzero"/></clipPath><clipPath id="0568ce69f2"><path d="M 81 165.601562 L 133.679688 165.601562 L 133.679688 217.351562 L 81 217.351562 Z M 81 165.601562 " clip-rule="nonzero"/></clipPath></defs><g transform="matrix(1, 0, 0, 1, 136, 166)"><g clip-path="url(#1ea9036dd3)"><g fill="#eeede9" fill-opacity="1"><g transform="translate(1.05299, 46.843345)"><g><path d="M 43.84375 -33.515625 C 43.84375 -30.878906 42.800781 -28.414062 40.71875 -26.125 C 38.632812 -23.832031 35.46875 -22.238281 31.21875 -21.34375 L 38.234375 -6.5625 C 39.117188 -4.695312 40.050781 -3.335938 41.03125 -2.484375 C 42.007812 -1.628906 43.429688 -1.179688 45.296875 -1.140625 L 44.921875 0 L 34.796875 0 L 24.90625 -20.90625 C 23.34375 -21.03125 22.347656 -21.132812 21.921875 -21.21875 C 21.753906 -21.21875 21.328125 -21.257812 20.640625 -21.34375 L 16.953125 -8.34375 C 16.828125 -8.050781 16.65625 -7.46875 16.4375 -6.59375 C 16.226562 -5.71875 16.125 -4.984375 16.125 -4.390625 C 16.125 -3.078125 16.585938 -2.207031 17.515625 -1.78125 C 18.453125 -1.351562 19.664062 -1.140625 21.15625 -1.140625 L 20.84375 0 L 1.59375 0 L 1.90625 -1.140625 C 4.332031 -1.140625 6.097656 -1.445312 7.203125 -2.0625 C 8.304688 -2.6875 9.15625 -3.992188 9.75 -5.984375 L 17.78125 -33.765625 C 18.207031 -35.253906 18.503906 -36.335938 18.671875 -37.015625 C 18.835938 -37.703125 18.921875 -38.210938 18.921875 -38.546875 C 18.921875 -39.953125 18.453125 -40.851562 17.515625 -41.25 C 16.585938 -41.65625 15.296875 -41.859375 13.640625 -41.859375 L 13.953125 -43.015625 L 29.1875 -43.015625 C 33.9375 -43.015625 37.566406 -42.128906 40.078125 -40.359375 C 42.585938 -38.597656 43.84375 -36.316406 43.84375 -33.515625 Z M 26.125 -40.46875 L 21.21875 -23.1875 C 22.445312 -22.9375 23.785156 -22.8125 25.234375 -22.8125 C 27.785156 -22.8125 29.929688 -23.332031 31.671875 -24.375 C 33.410156 -25.414062 34.691406 -26.753906 35.515625 -28.390625 C 36.347656 -30.023438 36.765625 -31.753906 36.765625 -33.578125 C 36.765625 -35.953125 36.0625 -37.734375 34.65625 -38.921875 C 33.257812 -40.117188 31.4375 -40.71875 29.1875 -40.71875 C 28.5 -40.71875 27.476562 -40.632812 26.125 -40.46875 Z M 26.125 -40.46875 "/></g></g></g><g fill="#eeede9" fill-opacity="1"><g transform="translate(41.509826, 46.843345)"><g><path d="M 20.640625 -29.125 C 22.429688 -29.125 23.929688 -28.675781 25.140625 -27.78125 C 26.347656 -26.882812 26.953125 -25.738281 26.953125 -24.34375 C 26.953125 -22.976562 26.3125 -21.425781 25.03125 -19.6875 C 23.757812 -17.945312 21.691406 -16.40625 18.828125 -15.0625 C 15.960938 -13.726562 12.320312 -13 7.90625 -12.875 C 7.644531 -12.019531 7.515625 -10.976562 7.515625 -9.75 C 7.515625 -7.15625 8.210938 -5.273438 9.609375 -4.109375 C 11.015625 -2.941406 12.566406 -2.359375 14.265625 -2.359375 C 17.117188 -2.359375 20.007812 -3.78125 22.9375 -6.625 L 23.765625 -5.859375 C 19.222656 -1.441406 14.828125 0.765625 10.578125 0.765625 C 8.835938 0.765625 7.316406 0.332031 6.015625 -0.53125 C 4.722656 -1.40625 3.75 -2.539062 3.09375 -3.9375 C 2.4375 -5.34375 2.109375 -6.789062 2.109375 -8.28125 C 2.109375 -11.257812 2.96875 -14.382812 4.6875 -17.65625 C 6.40625 -20.925781 8.695312 -23.65625 11.5625 -25.84375 C 14.425781 -28.03125 17.453125 -29.125 20.640625 -29.125 Z M 8.28125 -14.078125 C 11.164062 -14.296875 13.503906 -14.785156 15.296875 -15.546875 C 17.035156 -16.304688 18.445312 -17.289062 19.53125 -18.5 C 20.613281 -19.71875 21.390625 -20.910156 21.859375 -22.078125 C 22.328125 -23.242188 22.5625 -24.210938 22.5625 -24.984375 C 22.5625 -25.703125 22.296875 -26.367188 21.765625 -26.984375 C 21.234375 -27.597656 20.476562 -27.90625 19.5 -27.90625 C 17.800781 -27.90625 16.15625 -27.117188 14.5625 -25.546875 C 12.96875 -23.972656 11.609375 -22.101562 10.484375 -19.9375 C 9.359375 -17.769531 8.625 -15.816406 8.28125 -14.078125 Z M 8.28125 -14.078125 "/></g></g></g><g fill="#eeede9" fill-opacity="1"><g transform="translate(64.955676, 46.843345)"><g><path d="M 19.8125 -29.125 C 20.957031 -29.125 22 -28.726562 22.9375 -27.9375 C 23.875 -27.15625 24.445312 -26.0625 24.65625 -24.65625 L 24.78125 -24.65625 L 25.8125 -28.421875 L 30.84375 -29.125 L 24.28125 -6.109375 C 24.238281 -6.023438 24.128906 -5.707031 23.953125 -5.15625 C 23.785156 -4.601562 23.703125 -4.050781 23.703125 -3.5 C 23.703125 -3.164062 23.785156 -2.898438 23.953125 -2.703125 C 24.128906 -2.515625 24.320312 -2.421875 24.53125 -2.421875 C 25.082031 -2.421875 25.78125 -2.800781 26.625 -3.5625 C 27.476562 -4.332031 28.289062 -5.394531 29.0625 -6.75 L 30.015625 -6.109375 C 28.867188 -3.992188 27.410156 -2.316406 25.640625 -1.078125 C 23.878906 0.148438 22.320312 0.765625 20.96875 0.765625 C 20.195312 0.765625 19.617188 0.488281 19.234375 -0.0625 C 18.859375 -0.613281 18.671875 -1.296875 18.671875 -2.109375 C 18.671875 -2.660156 18.785156 -3.5625 19.015625 -4.8125 C 19.253906 -6.0625 19.628906 -7.328125 20.140625 -8.609375 L 20 -8.734375 C 15.25 -2.398438 10.941406 0.765625 7.078125 0.765625 C 5.378906 0.765625 4.03125 0.0351562 3.03125 -1.421875 C 2.03125 -2.890625 1.53125 -4.582031 1.53125 -6.5 C 1.53125 -9.8125 2.492188 -13.238281 4.421875 -16.78125 C 6.359375 -20.332031 8.757812 -23.273438 11.625 -25.609375 C 14.5 -27.953125 17.226562 -29.125 19.8125 -29.125 Z M 6.625 -7.703125 C 6.625 -6.046875 7.003906 -4.835938 7.765625 -4.078125 C 8.535156 -3.316406 9.429688 -2.9375 10.453125 -2.9375 C 11.765625 -2.9375 13.1875 -3.53125 14.71875 -4.71875 C 16.25 -5.90625 17.660156 -7.421875 18.953125 -9.265625 C 20.253906 -11.117188 21.222656 -13 21.859375 -14.90625 C 22.492188 -16.78125 22.957031 -18.320312 23.25 -19.53125 C 23.550781 -20.738281 23.703125 -21.914062 23.703125 -23.0625 C 23.703125 -24.71875 23.316406 -25.9375 22.546875 -26.71875 C 21.785156 -27.507812 20.894531 -27.90625 19.875 -27.90625 C 17.882812 -27.90625 15.859375 -26.679688 13.796875 -24.234375 C 11.734375 -21.796875 10.019531 -18.941406 8.65625 -15.671875 C 7.300781 -12.398438 6.625 -9.742188 6.625 -7.703125 Z M 6.625 -7.703125 "/></g></g></g><g clip-path="url(#598f7cb1c8)"><g fill="#eeede9" fill-opacity="1"><g transform="translate(92.35165, 46.843345)"><g><path d="M 8.859375 -7.140625 C 8.554688 -6.117188 8.332031 -5.300781 8.1875 -4.6875 C 8.039062 -4.070312 7.96875 -3.550781 7.96875 -3.125 C 7.96875 -2.820312 8.039062 -2.597656 8.1875 -2.453125 C 8.332031 -2.304688 8.472656 -2.234375 8.609375 -2.234375 C 9.109375 -2.234375 9.972656 -2.847656 11.203125 -4.078125 C 12.441406 -5.304688 13.210938 -6.175781 13.515625 -6.6875 L 14.53125 -6.109375 C 13.164062 -4.242188 11.675781 -2.628906 10.0625 -1.265625 C 8.445312 0.0859375 6.941406 0.765625 5.546875 0.765625 C 3.847656 0.765625 3 -0.234375 3 -2.234375 C 3 -3.035156 3.164062 -4.03125 3.5 -5.21875 C 3.84375 -6.414062 4.078125 -7.203125 4.203125 -7.578125 L 13.25 -39.0625 C 13.507812 -40.039062 13.640625 -40.804688 13.640625 -41.359375 C 13.640625 -41.910156 13.445312 -42.351562 13.0625 -42.6875 C 12.675781 -43.03125 12.1875 -43.203125 11.59375 -43.203125 C 10.789062 -43.203125 10.070312 -43.140625 9.4375 -43.015625 L 9.4375 -44.21875 L 18.796875 -45.6875 L 19.875 -45.6875 L 9.6875 -10 C 9.257812 -8.46875 8.984375 -7.515625 8.859375 -7.140625 Z M 8.859375 -7.140625 "/></g></g></g></g></g></g><g transform="matrix(1, 0, 0, 1, 248, 154)"><g clip-path="url(#20d04d425d)"><g fill="#eeede9" fill-opacity="1"><g transform="translate(0.4199, 59.826892)"><g><path d="M 4.96875 0 L 4.96875 -41.171875 L 23.1875 -41.171875 C 26.226562 -41.171875 28.804688 -40.664062 30.921875 -39.65625 C 33.046875 -38.644531 34.660156 -37.175781 35.765625 -35.25 C 36.878906 -33.320312 37.4375 -30.992188 37.4375 -28.265625 C 37.4375 -25.617188 36.878906 -23.320312 35.765625 -21.375 C 34.660156 -19.425781 33.046875 -17.925781 30.921875 -16.875 C 28.804688 -15.820312 26.226562 -15.296875 23.1875 -15.296875 L 12.671875 -15.296875 L 12.671875 0 Z M 12.671875 -21.4375 L 21.953125 -21.4375 C 24.566406 -21.4375 26.546875 -22 27.890625 -23.125 C 29.234375 -24.257812 29.90625 -25.972656 29.90625 -28.265625 C 29.90625 -30.523438 29.234375 -32.207031 27.890625 -33.3125 C 26.546875 -34.425781 24.566406 -34.984375 21.953125 -34.984375 L 12.671875 -34.984375 Z M 12.671875 -21.4375 "/></g></g></g><g fill="#eeede9" fill-opacity="1"><g transform="translate(34.757621, 59.826892)"><g><path d="M 4.140625 0 L 4.140625 -28.859375 L 11.21875 -28.859375 L 11.21875 -21.84375 L 10.984375 -21.84375 C 11.566406 -24.101562 12.664062 -25.875 14.28125 -27.15625 C 15.894531 -28.445312 17.988281 -29.164062 20.5625 -29.3125 L 23.296875 -29.546875 L 23.828125 -22.890625 L 19.09375 -22.484375 C 16.71875 -22.253906 14.90625 -21.492188 13.65625 -20.203125 C 12.414062 -18.921875 11.796875 -17.207031 11.796875 -15.0625 L 11.796875 0 Z M 4.140625 0 "/></g></g></g><g fill="#eeede9" fill-opacity="1"><g transform="translate(54.145447, 59.826892)"><g><path d="M 17.515625 0.578125 C 14.484375 0.578125 11.847656 -0.03125 9.609375 -1.25 C 7.367188 -2.476562 5.632812 -4.222656 4.40625 -6.484375 C 3.175781 -8.742188 2.5625 -11.390625 2.5625 -14.421875 C 2.5625 -17.503906 3.175781 -20.160156 4.40625 -22.390625 C 5.632812 -24.628906 7.367188 -26.363281 9.609375 -27.59375 C 11.847656 -28.820312 14.484375 -29.4375 17.515625 -29.4375 C 20.597656 -29.4375 23.25 -28.820312 25.46875 -27.59375 C 27.6875 -26.363281 29.40625 -24.617188 30.625 -22.359375 C 31.851562 -20.109375 32.46875 -17.460938 32.46875 -14.421875 C 32.46875 -11.390625 31.851562 -8.742188 30.625 -6.484375 C 29.40625 -4.222656 27.6875 -2.476562 25.46875 -1.25 C 23.25 -0.03125 20.597656 0.578125 17.515625 0.578125 Z M 17.515625 -5.375 C 19.816406 -5.375 21.628906 -6.160156 22.953125 -7.734375 C 24.273438 -9.316406 24.9375 -11.566406 24.9375 -14.484375 C 24.9375 -17.398438 24.273438 -19.628906 22.953125 -21.171875 C 21.628906 -22.710938 19.816406 -23.484375 17.515625 -23.484375 C 15.265625 -23.484375 13.46875 -22.710938 12.125 -21.171875 C 10.78125 -19.628906 10.109375 -17.398438 10.109375 -14.484375 C 10.109375 -11.566406 10.78125 -9.316406 12.125 -7.734375 C 13.46875 -6.160156 15.265625 -5.375 17.515625 -5.375 Z M 17.515625 -5.375 "/></g></g></g></g></g><g clip-path="url(#db6970598c)"><path fill="#eeede9" d="M 19.679688 191.414062 C 19.679688 205.644531 31.257812 217.21875 45.488281 217.21875 C 50.664062 217.21875 55.480469 215.683594 59.523438 213.050781 C 53.125 208 49.003906 200.179688 49.003906 191.414062 C 49.003906 182.648438 53.125 174.828125 59.523438 169.773438 C 55.484375 167.140625 50.664062 165.605469 45.488281 165.605469 C 31.257812 165.605469 19.679688 177.183594 19.679688 191.414062 Z M 19.679688 191.414062 " fill-opacity="1" fill-rule="nonzero"/></g><g clip-path="url(#5ec38620f4)"><path fill="#eeede9" d="M 50.765625 191.414062 C 50.765625 205.644531 62.34375 217.21875 76.574219 217.21875 C 81.75 217.21875 86.566406 215.683594 90.613281 213.050781 C 84.210938 208 80.09375 200.179688 80.09375 191.414062 C 80.09375 182.648438 84.210938 174.828125 90.613281 169.773438 C 86.566406 167.140625 81.75 165.605469 76.574219 165.605469 C 62.34375 165.605469 50.765625 177.183594 50.765625 191.414062 Z M 50.765625 191.414062 " fill-opacity="1" fill-rule="nonzero"/></g><g clip-path="url(#0568ce69f2)"><path fill="#eeede9" d="M 133.46875 191.414062 C 133.46875 192.257812 133.425781 193.101562 133.34375 193.941406 C 133.261719 194.785156 133.136719 195.617188 132.972656 196.449219 C 132.808594 197.277344 132.601562 198.09375 132.359375 198.90625 C 132.113281 199.714844 131.828125 200.507812 131.503906 201.289062 C 131.179688 202.070312 130.820312 202.832031 130.421875 203.578125 C 130.023438 204.324219 129.589844 205.046875 129.121094 205.75 C 128.648438 206.453125 128.148438 207.132812 127.609375 207.785156 C 127.074219 208.4375 126.507812 209.0625 125.910156 209.660156 C 125.3125 210.257812 124.6875 210.824219 124.035156 211.363281 C 123.378906 211.898438 122.703125 212.402344 122 212.871094 C 121.296875 213.339844 120.574219 213.773438 119.828125 214.171875 C 119.082031 214.570312 118.320312 214.933594 117.539062 215.253906 C 116.757812 215.578125 115.960938 215.863281 115.152344 216.109375 C 114.34375 216.355469 113.527344 216.558594 112.695312 216.722656 C 111.867188 216.890625 111.03125 217.011719 110.191406 217.097656 C 109.351562 217.179688 108.507812 217.21875 107.660156 217.21875 C 106.816406 217.21875 105.972656 217.179688 105.132812 217.097656 C 104.292969 217.011719 103.457031 216.890625 102.628906 216.722656 C 101.796875 216.558594 100.980469 216.355469 100.171875 216.109375 C 99.363281 215.863281 98.566406 215.578125 97.785156 215.253906 C 97.003906 214.933594 96.242188 214.570312 95.496094 214.171875 C 94.75 213.773438 94.027344 213.339844 93.324219 212.871094 C 92.621094 212.402344 91.941406 211.898438 91.289062 211.363281 C 90.636719 210.824219 90.011719 210.257812 89.414062 209.660156 C 88.816406 209.0625 88.25 208.4375 87.710938 207.785156 C 87.175781 207.132812 86.671875 206.453125 86.203125 205.75 C 85.734375 205.046875 85.300781 204.324219 84.902344 203.578125 C 84.503906 202.832031 84.140625 202.070312 83.820312 201.289062 C 83.496094 200.507812 83.210938 199.714844 82.964844 198.90625 C 82.71875 198.09375 82.515625 197.277344 82.351562 196.449219 C 82.183594 195.617188 82.0625 194.785156 81.980469 193.941406 C 81.894531 193.101562 81.855469 192.257812 81.855469 191.414062 C 81.855469 190.566406 81.894531 189.722656 81.980469 188.882812 C 82.0625 188.042969 82.183594 187.207031 82.351562 186.378906 C 82.515625 185.550781 82.71875 184.730469 82.964844 183.921875 C 83.210938 183.113281 83.496094 182.316406 83.820312 181.535156 C 84.140625 180.757812 84.503906 179.992188 84.902344 179.246094 C 85.300781 178.503906 85.734375 177.777344 86.203125 177.074219 C 86.671875 176.371094 87.175781 175.695312 87.710938 175.039062 C 88.25 174.386719 88.816406 173.761719 89.414062 173.164062 C 90.011719 172.566406 90.636719 172 91.289062 171.464844 C 91.941406 170.925781 92.621094 170.425781 93.324219 169.953125 C 94.027344 169.484375 94.75 169.050781 95.496094 168.652344 C 96.242188 168.253906 97.003906 167.894531 97.785156 167.570312 C 98.566406 167.246094 99.363281 166.960938 100.171875 166.71875 C 100.980469 166.472656 101.796875 166.265625 102.628906 166.101562 C 103.457031 165.9375 104.292969 165.8125 105.132812 165.730469 C 105.972656 165.648438 106.816406 165.605469 107.660156 165.605469 C 108.507812 165.605469 109.351562 165.648438 110.191406 165.730469 C 111.03125 165.8125 111.867188 165.9375 112.695312 166.101562 C 113.527344 166.265625 114.34375 166.472656 115.152344 166.71875 C 115.960938 166.960938 116.757812 167.246094 117.539062 167.570312 C 118.320312 167.894531 119.082031 168.253906 119.828125 168.652344 C 120.574219 169.050781 121.296875 169.484375 122 169.953125 C 122.703125 170.425781 123.378906 170.925781 124.035156 171.464844 C 124.6875 172 125.3125 172.566406 125.910156 173.164062 C 126.507812 173.761719 127.074219 174.386719 127.609375 175.039062 C 128.148438 175.695312 128.648438 176.371094 129.121094 177.074219 C 129.589844 177.777344 130.023438 178.503906 130.421875 179.246094 C 130.820312 179.992188 131.179688 180.757812 131.503906 181.535156 C 131.828125 182.316406 132.113281 183.113281 132.359375 183.921875 C 132.601562 184.730469 132.808594 185.550781 132.972656 186.378906 C 133.136719 187.207031 133.261719 188.042969 133.34375 188.882812 C 133.425781 189.722656 133.46875 190.566406 133.46875 191.414062 Z M 133.46875 191.414062 " fill-opacity="1" fill-rule="nonzero"/></g></svg>