<svg xmlns="http://www.w3.org/2000/svg" viewBox="0 0 100 80" fill="none">
  <!-- RealPro Official Icon - Two interlocking diagonal capsules -->

  <!-- First diagonal capsule (bottom-left to top-right) -->
  <path d="M12 62 C4 54, 4 42, 12 34 L42 4 C50 -4, 62 -4, 70 4 L70 4 C78 12, 78 24, 70 32 L40 62 C32 70, 20 70, 12 62 Z" fill="#3DAABD"/>

  <!-- Second diagonal capsule (top-left to bottom-right) -->
  <path d="M30 4 C22 -4, 10 -4, 2 4 L2 4 C-6 12, -6 24, 2 32 L58 76 C66 84, 78 84, 86 76 L86 76 C94 68, 94 56, 86 48 L30 4 Z" fill="#3DAABD"/>
</svg>
