<svg xmlns="http://www.w3.org/2000/svg" xmlns:xlink="http://www.w3.org/1999/xlink" width="500" zoomAndPan="magnify" viewBox="0 0 375 374.999991" height="500" preserveAspectRatio="xMidYMid meet" version="1.0"><defs><g/><clipPath id="a9c5a907d5"><path d="M 72 26 L 96.351562 26 L 96.351562 52 L 72 52 Z M 72 26 " clip-rule="nonzero"/></clipPath><clipPath id="774e61c50c"><path d="M 0.890625 35 L 37 35 L 37 62 L 0.890625 62 Z M 0.890625 35 " clip-rule="nonzero"/></clipPath><clipPath id="1d0f8da6ca"><path d="M 51 6.367188 L 74 6.367188 L 74 29 L 51 29 Z M 51 6.367188 " clip-rule="nonzero"/></clipPath><clipPath id="cdc0c7df0e"><rect x="0" width="329" y="0" height="68"/></clipPath></defs><g transform="matrix(1, 0, 0, 1, 20, 153)"><g clip-path="url(#cdc0c7df0e)"><g fill="#000000" fill-opacity="1"><g transform="translate(103.33861, 52.604764)"><g><path d="M 28.78125 0 L 21.4375 -10.609375 L 13.328125 -10.609375 L 13.328125 0 L 4.515625 0 L 4.515625 -38.078125 L 21 -38.078125 C 24.375 -38.078125 27.300781 -37.515625 29.78125 -36.390625 C 32.269531 -35.273438 34.1875 -33.679688 35.53125 -31.609375 C 36.875 -29.546875 37.546875 -27.097656 37.546875 -24.265625 C 37.546875 -21.429688 36.863281 -18.988281 35.5 -16.9375 C 34.132812 -14.894531 32.203125 -13.328125 29.703125 -12.234375 L 38.25 0 Z M 28.625 -24.265625 C 28.625 -26.398438 27.929688 -28.039062 26.546875 -29.1875 C 25.171875 -30.332031 23.160156 -30.90625 20.515625 -30.90625 L 13.328125 -30.90625 L 13.328125 -17.625 L 20.515625 -17.625 C 23.160156 -17.625 25.171875 -18.203125 26.546875 -19.359375 C 27.929688 -20.523438 28.625 -22.160156 28.625 -24.265625 Z M 28.625 -24.265625 "/></g></g></g><g fill="#000000" fill-opacity="1"><g transform="translate(143.431547, 52.604764)"><g><path d="M 32.59375 -14.53125 C 32.59375 -14.414062 32.535156 -13.648438 32.421875 -12.234375 L 10.28125 -12.234375 C 10.675781 -10.421875 11.617188 -8.988281 13.109375 -7.9375 C 14.597656 -6.882812 16.445312 -6.359375 18.65625 -6.359375 C 20.1875 -6.359375 21.539062 -6.582031 22.71875 -7.03125 C 23.894531 -7.488281 24.988281 -8.207031 26 -9.1875 L 30.515625 -4.296875 C 27.765625 -1.140625 23.738281 0.4375 18.4375 0.4375 C 15.144531 0.4375 12.226562 -0.203125 9.6875 -1.484375 C 7.144531 -2.773438 5.179688 -4.5625 3.796875 -6.84375 C 2.421875 -9.132812 1.734375 -11.734375 1.734375 -14.640625 C 1.734375 -17.503906 2.414062 -20.085938 3.78125 -22.390625 C 5.144531 -24.691406 7.015625 -26.484375 9.390625 -27.765625 C 11.765625 -29.054688 14.421875 -29.703125 17.359375 -29.703125 C 20.222656 -29.703125 22.816406 -29.082031 25.140625 -27.84375 C 27.460938 -26.613281 29.285156 -24.847656 30.609375 -22.546875 C 31.929688 -20.242188 32.59375 -17.570312 32.59375 -14.53125 Z M 17.40625 -23.28125 C 15.488281 -23.28125 13.875 -22.734375 12.5625 -21.640625 C 11.257812 -20.554688 10.460938 -19.070312 10.171875 -17.1875 L 24.59375 -17.1875 C 24.300781 -19.039062 23.5 -20.519531 22.1875 -21.625 C 20.882812 -22.726562 19.289062 -23.28125 17.40625 -23.28125 Z M 17.40625 -23.28125 "/></g></g></g><g fill="#000000" fill-opacity="1"><g transform="translate(177.86687, 52.604764)"><g><path d="M 15.71875 -29.703125 C 20.257812 -29.703125 23.742188 -28.625 26.171875 -26.46875 C 28.597656 -24.3125 29.8125 -21.054688 29.8125 -16.703125 L 29.8125 0 L 21.875 0 L 21.875 -3.640625 C 20.28125 -0.921875 17.304688 0.4375 12.953125 0.4375 C 10.703125 0.4375 8.75 0.0546875 7.09375 -0.703125 C 5.445312 -1.460938 4.1875 -2.515625 3.3125 -3.859375 C 2.445312 -5.203125 2.015625 -6.726562 2.015625 -8.4375 C 2.015625 -11.15625 3.035156 -13.289062 5.078125 -14.84375 C 7.128906 -16.40625 10.296875 -17.1875 14.578125 -17.1875 L 21.328125 -17.1875 C 21.328125 -19.039062 20.765625 -20.460938 19.640625 -21.453125 C 18.515625 -22.453125 16.828125 -22.953125 14.578125 -22.953125 C 13.015625 -22.953125 11.476562 -22.707031 9.96875 -22.21875 C 8.46875 -21.726562 7.191406 -21.066406 6.140625 -20.234375 L 3.09375 -26.171875 C 4.695312 -27.296875 6.613281 -28.164062 8.84375 -28.78125 C 11.070312 -29.394531 13.363281 -29.703125 15.71875 -29.703125 Z M 15.078125 -5.28125 C 16.523438 -5.28125 17.8125 -5.613281 18.9375 -6.28125 C 20.0625 -6.957031 20.859375 -7.945312 21.328125 -9.25 L 21.328125 -12.234375 L 15.5 -12.234375 C 12.019531 -12.234375 10.28125 -11.09375 10.28125 -8.8125 C 10.28125 -7.726562 10.707031 -6.867188 11.5625 -6.234375 C 12.414062 -5.597656 13.585938 -5.28125 15.078125 -5.28125 Z M 15.078125 -5.28125 "/></g></g></g><g fill="#000000" fill-opacity="1"><g transform="translate(211.540578, 52.604764)"><g><path d="M 3.921875 -40.375 L 12.40625 -40.375 L 12.40625 0 L 3.921875 0 Z M 3.921875 -40.375 "/></g></g></g><g fill="#1d97bd" fill-opacity="1"><g transform="translate(228.031926, 52.604764)"><g><path d="M 21 -38.078125 C 24.375 -38.078125 27.300781 -37.515625 29.78125 -36.390625 C 32.269531 -35.273438 34.1875 -33.679688 35.53125 -31.609375 C 36.875 -29.546875 37.546875 -27.097656 37.546875 -24.265625 C 37.546875 -21.472656 36.875 -19.03125 35.53125 -16.9375 C 34.1875 -14.851562 32.269531 -13.257812 29.78125 -12.15625 C 27.300781 -11.050781 24.375 -10.5 21 -10.5 L 13.328125 -10.5 L 13.328125 0 L 4.515625 0 L 4.515625 -38.078125 Z M 20.515625 -17.6875 C 23.160156 -17.6875 25.171875 -18.253906 26.546875 -19.390625 C 27.929688 -20.535156 28.625 -22.160156 28.625 -24.265625 C 28.625 -26.398438 27.929688 -28.039062 26.546875 -29.1875 C 25.171875 -30.332031 23.160156 -30.90625 20.515625 -30.90625 L 13.328125 -30.90625 L 13.328125 -17.6875 Z M 20.515625 -17.6875 "/></g></g></g><g fill="#1d97bd" fill-opacity="1"><g transform="translate(267.961653, 52.604764)"><g><path d="M 12.03125 -25.40625 C 13.039062 -26.820312 14.40625 -27.890625 16.125 -28.609375 C 17.851562 -29.335938 19.84375 -29.703125 22.09375 -29.703125 L 22.09375 -21.875 C 21.144531 -21.945312 20.507812 -21.984375 20.1875 -21.984375 C 17.757812 -21.984375 15.851562 -21.300781 14.46875 -19.9375 C 13.09375 -18.582031 12.40625 -16.539062 12.40625 -13.8125 L 12.40625 0 L 3.921875 0 L 3.921875 -29.265625 L 12.03125 -29.265625 Z M 12.03125 -25.40625 "/></g></g></g><g fill="#1d97bd" fill-opacity="1"><g transform="translate(291.51693, 52.604764)"><g><path d="M 17.84375 0.4375 C 14.757812 0.4375 11.992188 -0.203125 9.546875 -1.484375 C 7.097656 -2.773438 5.179688 -4.5625 3.796875 -6.84375 C 2.421875 -9.132812 1.734375 -11.734375 1.734375 -14.640625 C 1.734375 -17.535156 2.421875 -20.125 3.796875 -22.40625 C 5.179688 -24.695312 7.097656 -26.484375 9.546875 -27.765625 C 11.992188 -29.054688 14.757812 -29.703125 17.84375 -29.703125 C 20.925781 -29.703125 23.679688 -29.054688 26.109375 -27.765625 C 28.546875 -26.484375 30.453125 -24.695312 31.828125 -22.40625 C 33.203125 -20.125 33.890625 -17.535156 33.890625 -14.640625 C 33.890625 -11.734375 33.203125 -9.132812 31.828125 -6.84375 C 30.453125 -4.5625 28.546875 -2.773438 26.109375 -1.484375 C 23.679688 -0.203125 20.925781 0.4375 17.84375 0.4375 Z M 17.84375 -6.53125 C 20.019531 -6.53125 21.804688 -7.265625 23.203125 -8.734375 C 24.597656 -10.203125 25.296875 -12.171875 25.296875 -14.640625 C 25.296875 -17.097656 24.597656 -19.0625 23.203125 -20.53125 C 21.804688 -22 20.019531 -22.734375 17.84375 -22.734375 C 15.664062 -22.734375 13.867188 -22 12.453125 -20.53125 C 11.046875 -19.0625 10.34375 -17.097656 10.34375 -14.640625 C 10.34375 -12.171875 11.046875 -10.203125 12.453125 -8.734375 C 13.867188 -7.265625 15.664062 -6.53125 17.84375 -6.53125 Z M 17.84375 -6.53125 "/></g></g></g><path fill="#1d97bd" d="M 81.503906 55.6875 L 39.5 13.683594 C 38.953125 13.132812 38.371094 12.65625 37.777344 12.261719 C 37.132812 11.832031 36.457031 11.472656 35.773438 11.1875 L 35.765625 11.1875 C 35.074219 10.902344 34.347656 10.6875 33.601562 10.53125 C 32.863281 10.382812 32.117188 10.3125 31.371094 10.3125 C 30.625 10.3125 29.875 10.382812 29.136719 10.53125 C 28.386719 10.679688 27.664062 10.902344 26.972656 11.1875 L 26.960938 11.1875 C 26.277344 11.472656 25.613281 11.824219 24.980469 12.246094 C 24.367188 12.65625 23.777344 13.136719 23.230469 13.6875 L 22.917969 14 C 22.511719 14.4375 22.140625 14.914062 21.8125 15.40625 C 21.382812 16.050781 21.023438 16.726562 20.738281 17.410156 C 20.457031 18.09375 20.238281 18.828125 20.085938 19.582031 C 19.9375 20.320312 19.863281 21.066406 19.863281 21.8125 C 19.863281 22.554688 19.9375 23.300781 20.085938 24.039062 C 20.238281 24.796875 20.453125 25.527344 20.734375 26.207031 C 21.011719 26.882812 21.367188 27.546875 21.792969 28.1875 C 22.203125 28.808594 22.679688 29.390625 23.210938 29.925781 L 23.605469 30.324219 L 40.675781 47.386719 L 50.03125 56.742188 C 60.179688 66.890625 71.941406 64.859375 82.566406 56.742188 Z M 81.503906 55.6875 " fill-opacity="1" fill-rule="evenodd"/><g clip-path="url(#a9c5a907d5)"><path fill="#1d97bd" d="M 88.453125 27.542969 C 86.835938 26.875 85.109375 26.539062 83.390625 26.539062 C 81.648438 26.539062 79.921875 26.875 78.3125 27.539062 C 76.773438 28.175781 75.316406 29.132812 74.039062 30.410156 L 74.03125 30.410156 L 72.105469 32.335938 L 72.550781 32.777344 L 90.371094 50.601562 L 90.8125 51.046875 L 91.253906 50.609375 L 92.738281 49.125 L 92.738281 49.113281 C 93.371094 48.484375 93.914062 47.816406 94.375 47.128906 C 94.867188 46.386719 95.28125 45.617188 95.605469 44.824219 C 95.929688 44.035156 96.183594 43.199219 96.355469 42.328125 C 96.523438 41.480469 96.609375 40.617188 96.609375 39.757812 C 96.609375 38.902344 96.523438 38.035156 96.355469 37.1875 C 96.183594 36.316406 95.929688 35.480469 95.605469 34.6875 C 95.28125 33.898438 94.867188 33.128906 94.375 32.386719 C 93.914062 31.699219 93.371094 31.03125 92.738281 30.402344 C 92.105469 29.769531 91.441406 29.222656 90.753906 28.761719 C 90.015625 28.28125 89.238281 27.867188 88.453125 27.542969 Z M 88.453125 27.542969 " fill-opacity="1" fill-rule="evenodd"/></g><g clip-path="url(#774e61c50c)"><path fill="#1d97bd" d="M 16.21875 36.0625 C 14.871094 35.507812 13.421875 35.226562 11.960938 35.226562 C 10.511719 35.226562 9.066406 35.503906 7.71875 36.0625 L 7.707031 36.0625 C 6.417969 36.59375 5.203125 37.398438 4.132812 38.46875 L 4.121094 38.46875 C 3.613281 38.976562 3.160156 39.539062 2.769531 40.128906 C 2.351562 40.753906 2.007812 41.402344 1.734375 42.058594 L 1.734375 42.070312 C 1.457031 42.734375 1.246094 43.433594 1.105469 44.152344 C 0.964844 44.859375 0.890625 45.582031 0.890625 46.300781 C 0.890625 47.019531 0.964844 47.742188 1.105469 48.449219 C 1.253906 49.179688 1.464844 49.886719 1.734375 50.539062 C 2.007812 51.203125 2.351562 51.847656 2.769531 52.46875 C 3.152344 53.042969 3.605469 53.597656 4.136719 54.128906 L 7.136719 57.132812 C 7.785156 57.777344 8.496094 58.332031 9.242188 58.796875 C 10.109375 59.335938 11.023438 59.777344 11.941406 60.121094 C 12.957031 60.503906 13.996094 60.78125 14.996094 60.96875 C 21.257812 62.136719 28.628906 61.699219 36.332031 54.996094 L 33.527344 52.191406 L 19.792969 38.476562 C 18.71875 37.402344 17.5 36.597656 16.21875 36.0625 Z M 16.21875 36.0625 " fill-opacity="1" fill-rule="evenodd"/></g><g clip-path="url(#1d0f8da6ca)"><path fill="#1d97bd" d="M 66.4375 7.238281 C 65.050781 6.664062 63.5625 6.378906 62.0625 6.378906 C 60.566406 6.378906 59.074219 6.664062 57.6875 7.238281 C 56.359375 7.789062 55.105469 8.613281 54.007812 9.714844 L 51.75 11.972656 L 52.09375 12.3125 L 52.105469 12.3125 L 67.53125 27.738281 L 67.875 28.085938 L 68.21875 27.738281 L 70.128906 25.828125 L 70.136719 25.828125 C 70.65625 25.3125 71.125 24.734375 71.539062 24.113281 C 71.972656 23.464844 72.324219 22.804688 72.597656 22.140625 C 72.878906 21.460938 73.097656 20.738281 73.246094 19.984375 C 73.386719 19.253906 73.464844 18.511719 73.464844 17.769531 C 73.464844 17.027344 73.394531 16.285156 73.246094 15.554688 C 73.097656 14.808594 72.878906 14.085938 72.597656 13.40625 C 72.316406 12.71875 71.960938 12.054688 71.546875 11.433594 L 71.535156 11.421875 C 71.136719 10.828125 70.667969 10.253906 70.125 9.710938 C 69.023438 8.613281 67.765625 7.789062 66.4375 7.238281 Z M 66.4375 7.238281 " fill-opacity="1" fill-rule="evenodd"/></g></g></g></svg>