<svg xmlns="http://www.w3.org/2000/svg" xmlns:xlink="http://www.w3.org/1999/xlink" width="500" zoomAndPan="magnify" viewBox="0 0 375 374.999991" height="500" preserveAspectRatio="xMidYMid meet" version="1.0"><defs><g/><clipPath id="aebeac4598"><path d="M 103 0.078125 L 327.761719 0.078125 L 327.761719 66.320312 L 103 66.320312 Z M 103 0.078125 " clip-rule="nonzero"/></clipPath><clipPath id="0f2cbacf70"><rect x="0" width="225" y="0" height="67"/></clipPath><clipPath id="6f217f7477"><path d="M 72 25 L 96.351562 25 L 96.351562 51 L 72 51 Z M 72 25 " clip-rule="nonzero"/></clipPath><clipPath id="7ee2baea3a"><path d="M 0.890625 34 L 37 34 L 37 61 L 0.890625 61 Z M 0.890625 34 " clip-rule="nonzero"/></clipPath><clipPath id="e4b6ad715f"><path d="M 51 5.367188 L 74 5.367188 L 74 28 L 51 28 Z M 51 5.367188 " clip-rule="nonzero"/></clipPath><clipPath id="67843282c2"><rect x="0" width="328" y="0" height="67"/></clipPath></defs><g transform="matrix(1, 0, 0, 1, 20, 154)"><g clip-path="url(#67843282c2)"><g clip-path="url(#aebeac4598)"><g transform="matrix(1, 0, 0, 1, 103, 0)"><g clip-path="url(#0f2cbacf70)"><g fill="#f4f4f4" fill-opacity="1"><g transform="translate(0.33861, 51.894495)"><g><path d="M 28.78125 0 L 21.4375 -10.609375 L 13.328125 -10.609375 L 13.328125 0 L 4.515625 0 L 4.515625 -38.078125 L 21 -38.078125 C 24.375 -38.078125 27.300781 -37.515625 29.78125 -36.390625 C 32.269531 -35.273438 34.1875 -33.679688 35.53125 -31.609375 C 36.875 -29.546875 37.546875 -27.097656 37.546875 -24.265625 C 37.546875 -21.429688 36.863281 -18.988281 35.5 -16.9375 C 34.132812 -14.894531 32.203125 -13.328125 29.703125 -12.234375 L 38.25 0 Z M 28.625 -24.265625 C 28.625 -26.398438 27.929688 -28.039062 26.546875 -29.1875 C 25.171875 -30.332031 23.160156 -30.90625 20.515625 -30.90625 L 13.328125 -30.90625 L 13.328125 -17.625 L 20.515625 -17.625 C 23.160156 -17.625 25.171875 -18.203125 26.546875 -19.359375 C 27.929688 -20.523438 28.625 -22.160156 28.625 -24.265625 Z M 28.625 -24.265625 "/></g></g></g><g fill="#f4f4f4" fill-opacity="1"><g transform="translate(40.438942, 51.894495)"><g><path d="M 32.59375 -14.53125 C 32.59375 -14.414062 32.535156 -13.648438 32.421875 -12.234375 L 10.28125 -12.234375 C 10.675781 -10.421875 11.617188 -8.988281 13.109375 -7.9375 C 14.597656 -6.882812 16.445312 -6.359375 18.65625 -6.359375 C 20.1875 -6.359375 21.539062 -6.582031 22.71875 -7.03125 C 23.894531 -7.488281 24.988281 -8.207031 26 -9.1875 L 30.515625 -4.296875 C 27.765625 -1.140625 23.738281 0.4375 18.4375 0.4375 C 15.144531 0.4375 12.226562 -0.203125 9.6875 -1.484375 C 7.144531 -2.773438 5.179688 -4.5625 3.796875 -6.84375 C 2.421875 -9.132812 1.734375 -11.734375 1.734375 -14.640625 C 1.734375 -17.503906 2.414062 -20.085938 3.78125 -22.390625 C 5.144531 -24.691406 7.015625 -26.484375 9.390625 -27.765625 C 11.765625 -29.054688 14.421875 -29.703125 17.359375 -29.703125 C 20.222656 -29.703125 22.816406 -29.082031 25.140625 -27.84375 C 27.460938 -26.613281 29.285156 -24.847656 30.609375 -22.546875 C 31.929688 -20.242188 32.59375 -17.570312 32.59375 -14.53125 Z M 17.40625 -23.28125 C 15.488281 -23.28125 13.875 -22.734375 12.5625 -21.640625 C 11.257812 -20.554688 10.460938 -19.070312 10.171875 -17.1875 L 24.59375 -17.1875 C 24.300781 -19.039062 23.5 -20.519531 22.1875 -21.625 C 20.882812 -22.726562 19.289062 -23.28125 17.40625 -23.28125 Z M 17.40625 -23.28125 "/></g></g></g><g fill="#f4f4f4" fill-opacity="1"><g transform="translate(74.880607, 51.894495)"><g><path d="M 15.71875 -29.703125 C 20.257812 -29.703125 23.742188 -28.625 26.171875 -26.46875 C 28.597656 -24.3125 29.8125 -21.054688 29.8125 -16.703125 L 29.8125 0 L 21.875 0 L 21.875 -3.640625 C 20.28125 -0.921875 17.304688 0.4375 12.953125 0.4375 C 10.703125 0.4375 8.75 0.0546875 7.09375 -0.703125 C 5.445312 -1.460938 4.1875 -2.515625 3.3125 -3.859375 C 2.445312 -5.203125 2.015625 -6.726562 2.015625 -8.4375 C 2.015625 -11.15625 3.035156 -13.289062 5.078125 -14.84375 C 7.128906 -16.40625 10.296875 -17.1875 14.578125 -17.1875 L 21.328125 -17.1875 C 21.328125 -19.039062 20.765625 -20.460938 19.640625 -21.453125 C 18.515625 -22.453125 16.828125 -22.953125 14.578125 -22.953125 C 13.015625 -22.953125 11.476562 -22.707031 9.96875 -22.21875 C 8.46875 -21.726562 7.191406 -21.066406 6.140625 -20.234375 L 3.09375 -26.171875 C 4.695312 -27.296875 6.613281 -28.164062 8.84375 -28.78125 C 11.070312 -29.394531 13.363281 -29.703125 15.71875 -29.703125 Z M 15.078125 -5.28125 C 16.523438 -5.28125 17.8125 -5.613281 18.9375 -6.28125 C 20.0625 -6.957031 20.859375 -7.945312 21.328125 -9.25 L 21.328125 -12.234375 L 15.5 -12.234375 C 12.019531 -12.234375 10.28125 -11.09375 10.28125 -8.8125 C 10.28125 -7.726562 10.707031 -6.867188 11.5625 -6.234375 C 12.414062 -5.597656 13.585938 -5.28125 15.078125 -5.28125 Z M 15.078125 -5.28125 "/></g></g></g><g fill="#f4f4f4" fill-opacity="1"><g transform="translate(108.56053, 51.894495)"><g><path d="M 3.921875 -40.375 L 12.40625 -40.375 L 12.40625 0 L 3.921875 0 Z M 3.921875 -40.375 "/></g></g></g><g fill="#1d97bd" fill-opacity="1"><g transform="translate(125.049531, 51.894495)"><g><path d="M 21 -38.078125 C 24.375 -38.078125 27.300781 -37.515625 29.78125 -36.390625 C 32.269531 -35.273438 34.1875 -33.679688 35.53125 -31.609375 C 36.875 -29.546875 37.546875 -27.097656 37.546875 -24.265625 C 37.546875 -21.472656 36.875 -19.03125 35.53125 -16.9375 C 34.1875 -14.851562 32.269531 -13.257812 29.78125 -12.15625 C 27.300781 -11.050781 24.375 -10.5 21 -10.5 L 13.328125 -10.5 L 13.328125 0 L 4.515625 0 L 4.515625 -38.078125 Z M 20.515625 -17.6875 C 23.160156 -17.6875 25.171875 -18.253906 26.546875 -19.390625 C 27.929688 -20.535156 28.625 -22.160156 28.625 -24.265625 C 28.625 -26.398438 27.929688 -28.039062 26.546875 -29.1875 C 25.171875 -30.332031 23.160156 -30.90625 20.515625 -30.90625 L 13.328125 -30.90625 L 13.328125 -17.6875 Z M 20.515625 -17.6875 "/></g></g></g><g fill="#1d97bd" fill-opacity="1"><g transform="translate(164.986625, 51.894495)"><g><path d="M 12.03125 -25.40625 C 13.039062 -26.820312 14.40625 -27.890625 16.125 -28.609375 C 17.851562 -29.335938 19.84375 -29.703125 22.09375 -29.703125 L 22.09375 -21.875 C 21.144531 -21.945312 20.507812 -21.984375 20.1875 -21.984375 C 17.757812 -21.984375 15.851562 -21.300781 14.46875 -19.9375 C 13.09375 -18.582031 12.40625 -16.539062 12.40625 -13.8125 L 12.40625 0 L 3.921875 0 L 3.921875 -29.265625 L 12.03125 -29.265625 Z M 12.03125 -25.40625 "/></g></g></g><g fill="#1d97bd" fill-opacity="1"><g transform="translate(188.546254, 51.894495)"><g><path d="M 17.84375 0.4375 C 14.757812 0.4375 11.992188 -0.203125 9.546875 -1.484375 C 7.097656 -2.773438 5.179688 -4.5625 3.796875 -6.84375 C 2.421875 -9.132812 1.734375 -11.734375 1.734375 -14.640625 C 1.734375 -17.535156 2.421875 -20.125 3.796875 -22.40625 C 5.179688 -24.695312 7.097656 -26.484375 9.546875 -27.765625 C 11.992188 -29.054688 14.757812 -29.703125 17.84375 -29.703125 C 20.925781 -29.703125 23.679688 -29.054688 26.109375 -27.765625 C 28.546875 -26.484375 30.453125 -24.695312 31.828125 -22.40625 C 33.203125 -20.125 33.890625 -17.535156 33.890625 -14.640625 C 33.890625 -11.734375 33.203125 -9.132812 31.828125 -6.84375 C 30.453125 -4.5625 28.546875 -2.773438 26.109375 -1.484375 C 23.679688 -0.203125 20.925781 0.4375 17.84375 0.4375 Z M 17.84375 -6.53125 C 20.019531 -6.53125 21.804688 -7.265625 23.203125 -8.734375 C 24.597656 -10.203125 25.296875 -12.171875 25.296875 -14.640625 C 25.296875 -17.097656 24.597656 -19.0625 23.203125 -20.53125 C 21.804688 -22 20.019531 -22.734375 17.84375 -22.734375 C 15.664062 -22.734375 13.867188 -22 12.453125 -20.53125 C 11.046875 -19.0625 10.34375 -17.097656 10.34375 -14.640625 C 10.34375 -12.171875 11.046875 -10.203125 12.453125 -8.734375 C 13.867188 -7.265625 15.664062 -6.53125 17.84375 -6.53125 Z M 17.84375 -6.53125 "/></g></g></g></g></g></g><path fill="#1d97bd" d="M 81.503906 54.6875 L 39.5 12.683594 C 38.953125 12.132812 38.371094 11.65625 37.777344 11.261719 C 37.132812 10.832031 36.457031 10.472656 35.773438 10.1875 L 35.765625 10.1875 C 35.074219 9.902344 34.347656 9.6875 33.601562 9.53125 C 32.863281 9.382812 32.117188 9.3125 31.371094 9.3125 C 30.625 9.3125 29.875 9.382812 29.136719 9.53125 C 28.386719 9.679688 27.664062 9.902344 26.972656 10.1875 L 26.960938 10.1875 C 26.277344 10.472656 25.613281 10.824219 24.980469 11.246094 C 24.367188 11.65625 23.777344 12.136719 23.230469 12.6875 L 22.917969 13 C 22.511719 13.4375 22.140625 13.914062 21.8125 14.40625 C 21.382812 15.050781 21.023438 15.726562 20.738281 16.410156 C 20.457031 17.09375 20.238281 17.828125 20.085938 18.582031 C 19.9375 19.320312 19.863281 20.066406 19.863281 20.8125 C 19.863281 21.554688 19.9375 22.300781 20.085938 23.039062 C 20.238281 23.796875 20.453125 24.527344 20.734375 25.207031 C 21.011719 25.882812 21.367188 26.546875 21.792969 27.1875 C 22.203125 27.808594 22.679688 28.390625 23.210938 28.925781 L 23.605469 29.324219 L 40.675781 46.386719 L 50.03125 55.742188 C 60.179688 65.890625 71.941406 63.859375 82.566406 55.742188 Z M 81.503906 54.6875 " fill-opacity="1" fill-rule="evenodd"/><g clip-path="url(#6f217f7477)"><path fill="#1d97bd" d="M 88.453125 26.542969 C 86.835938 25.875 85.109375 25.539062 83.390625 25.539062 C 81.648438 25.539062 79.921875 25.875 78.3125 26.539062 C 76.773438 27.175781 75.316406 28.132812 74.039062 29.410156 L 74.03125 29.410156 L 72.105469 31.335938 L 72.550781 31.777344 L 90.371094 49.601562 L 90.8125 50.046875 L 91.253906 49.609375 L 92.738281 48.125 L 92.738281 48.113281 C 93.371094 47.484375 93.914062 46.816406 94.375 46.128906 C 94.867188 45.386719 95.28125 44.617188 95.605469 43.824219 C 95.929688 43.035156 96.183594 42.199219 96.355469 41.328125 C 96.523438 40.480469 96.609375 39.617188 96.609375 38.757812 C 96.609375 37.902344 96.523438 37.035156 96.355469 36.1875 C 96.183594 35.316406 95.929688 34.480469 95.605469 33.6875 C 95.28125 32.898438 94.867188 32.128906 94.375 31.386719 C 93.914062 30.699219 93.371094 30.03125 92.738281 29.402344 C 92.105469 28.769531 91.441406 28.222656 90.753906 27.761719 C 90.015625 27.28125 89.238281 26.867188 88.453125 26.542969 Z M 88.453125 26.542969 " fill-opacity="1" fill-rule="evenodd"/></g><g clip-path="url(#7ee2baea3a)"><path fill="#1d97bd" d="M 16.21875 35.0625 C 14.871094 34.507812 13.421875 34.226562 11.960938 34.226562 C 10.511719 34.226562 9.066406 34.503906 7.71875 35.0625 L 7.707031 35.0625 C 6.417969 35.59375 5.203125 36.398438 4.132812 37.46875 L 4.121094 37.46875 C 3.613281 37.976562 3.160156 38.539062 2.769531 39.128906 C 2.351562 39.753906 2.007812 40.402344 1.734375 41.058594 L 1.734375 41.070312 C 1.457031 41.734375 1.246094 42.433594 1.105469 43.152344 C 0.964844 43.859375 0.890625 44.582031 0.890625 45.300781 C 0.890625 46.019531 0.964844 46.742188 1.105469 47.449219 C 1.253906 48.179688 1.464844 48.886719 1.734375 49.539062 C 2.007812 50.203125 2.351562 50.847656 2.769531 51.46875 C 3.152344 52.042969 3.605469 52.597656 4.136719 53.128906 L 7.136719 56.132812 C 7.785156 56.777344 8.496094 57.332031 9.242188 57.796875 C 10.109375 58.335938 11.023438 58.777344 11.941406 59.121094 C 12.957031 59.503906 13.996094 59.78125 14.996094 59.96875 C 21.257812 61.136719 28.628906 60.699219 36.332031 53.996094 L 33.527344 51.191406 L 19.792969 37.476562 C 18.71875 36.402344 17.5 35.597656 16.21875 35.0625 Z M 16.21875 35.0625 " fill-opacity="1" fill-rule="evenodd"/></g><g clip-path="url(#e4b6ad715f)"><path fill="#1d97bd" d="M 66.4375 6.238281 C 65.050781 5.664062 63.5625 5.378906 62.0625 5.378906 C 60.566406 5.378906 59.074219 5.664062 57.6875 6.238281 C 56.359375 6.789062 55.105469 7.613281 54.007812 8.714844 L 51.75 10.972656 L 52.09375 11.3125 L 52.105469 11.3125 L 67.53125 26.738281 L 67.875 27.085938 L 68.21875 26.738281 L 70.128906 24.828125 L 70.136719 24.828125 C 70.65625 24.3125 71.125 23.734375 71.539062 23.113281 C 71.972656 22.464844 72.324219 21.804688 72.597656 21.140625 C 72.878906 20.460938 73.097656 19.738281 73.246094 18.984375 C 73.386719 18.253906 73.464844 17.511719 73.464844 16.769531 C 73.464844 16.027344 73.394531 15.285156 73.246094 14.554688 C 73.097656 13.808594 72.878906 13.085938 72.597656 12.40625 C 72.316406 11.71875 71.960938 11.054688 71.546875 10.433594 L 71.535156 10.421875 C 71.136719 9.828125 70.667969 9.253906 70.125 8.710938 C 69.023438 7.613281 67.765625 6.789062 66.4375 6.238281 Z M 66.4375 6.238281 " fill-opacity="1" fill-rule="evenodd"/></g></g></g></svg>