<svg xmlns="http://www.w3.org/2000/svg" xmlns:xlink="http://www.w3.org/1999/xlink" width="500" zoomAndPan="magnify" viewBox="0 0 375 374.999991" height="500" preserveAspectRatio="xMidYMid meet" version="1.0"><defs><g/><clipPath id="8d570c69fb"><path d="M 19.679688 165.601562 L 60 165.601562 L 60 217.351562 L 19.679688 217.351562 Z M 19.679688 165.601562 " clip-rule="nonzero"/></clipPath><clipPath id="b436097a2f"><path d="M 50 165.601562 L 91 165.601562 L 91 217.351562 L 50 217.351562 Z M 50 165.601562 " clip-rule="nonzero"/></clipPath><clipPath id="c0ed974348"><path d="M 81 165.601562 L 133.679688 165.601562 L 133.679688 217.351562 L 81 217.351562 Z M 81 165.601562 " clip-rule="nonzero"/></clipPath></defs><g fill="#1b1b1b" fill-opacity="1"><g transform="translate(137.073747, 211.70653)"><g><path d="M 43.828125 -33.5 C 43.828125 -30.875 42.785156 -28.410156 40.703125 -26.109375 C 38.617188 -23.816406 35.457031 -22.226562 31.21875 -21.34375 L 38.21875 -6.5625 C 39.113281 -4.695312 40.046875 -3.335938 41.015625 -2.484375 C 41.992188 -1.628906 43.421875 -1.179688 45.296875 -1.140625 L 44.90625 0 L 34.78125 0 L 24.90625 -20.890625 C 23.332031 -21.015625 22.332031 -21.125 21.90625 -21.21875 C 21.738281 -21.21875 21.316406 -21.257812 20.640625 -21.34375 L 16.9375 -8.34375 C 16.8125 -8.050781 16.640625 -7.46875 16.421875 -6.59375 C 16.210938 -5.71875 16.109375 -4.984375 16.109375 -4.390625 C 16.109375 -3.078125 16.578125 -2.207031 17.515625 -1.78125 C 18.453125 -1.351562 19.664062 -1.140625 21.15625 -1.140625 L 20.828125 0 L 1.59375 0 L 1.90625 -1.140625 C 4.332031 -1.140625 6.097656 -1.445312 7.203125 -2.0625 C 8.304688 -2.6875 9.15625 -3.992188 9.75 -5.984375 L 17.765625 -33.765625 C 18.191406 -35.253906 18.488281 -36.335938 18.65625 -37.015625 C 18.832031 -37.691406 18.921875 -38.203125 18.921875 -38.546875 C 18.921875 -39.941406 18.453125 -40.84375 17.515625 -41.25 C 16.578125 -41.65625 15.28125 -41.859375 13.625 -41.859375 L 13.953125 -43 L 29.171875 -43 C 33.929688 -43 37.5625 -42.117188 40.0625 -40.359375 C 42.570312 -38.597656 43.828125 -36.3125 43.828125 -33.5 Z M 26.125 -40.453125 L 21.21875 -23.1875 C 22.445312 -22.9375 23.78125 -22.8125 25.21875 -22.8125 C 27.769531 -22.8125 29.914062 -23.328125 31.65625 -24.359375 C 33.394531 -25.398438 34.675781 -26.738281 35.5 -28.375 C 36.332031 -30.007812 36.75 -31.742188 36.75 -33.578125 C 36.75 -35.953125 36.046875 -37.734375 34.640625 -38.921875 C 33.242188 -40.109375 31.421875 -40.703125 29.171875 -40.703125 C 28.492188 -40.703125 27.476562 -40.617188 26.125 -40.453125 Z M 26.125 -40.453125 "/></g></g></g><g fill="#1b1b1b" fill-opacity="1"><g transform="translate(177.524649, 211.70653)"><g><path d="M 20.640625 -29.109375 C 22.421875 -29.109375 23.914062 -28.660156 25.125 -27.765625 C 26.34375 -26.878906 26.953125 -25.734375 26.953125 -24.328125 C 26.953125 -22.972656 26.3125 -21.425781 25.03125 -19.6875 C 23.757812 -17.945312 21.691406 -16.40625 18.828125 -15.0625 C 15.960938 -13.726562 12.320312 -13 7.90625 -12.875 C 7.644531 -12.019531 7.515625 -10.976562 7.515625 -9.75 C 7.515625 -7.15625 8.210938 -5.273438 9.609375 -4.109375 C 11.015625 -2.941406 12.566406 -2.359375 14.265625 -2.359375 C 17.109375 -2.359375 20 -3.78125 22.9375 -6.625 L 23.765625 -5.859375 C 19.210938 -1.441406 14.816406 0.765625 10.578125 0.765625 C 8.835938 0.765625 7.316406 0.332031 6.015625 -0.53125 C 4.722656 -1.40625 3.75 -2.539062 3.09375 -3.9375 C 2.4375 -5.34375 2.109375 -6.789062 2.109375 -8.28125 C 2.109375 -11.25 2.96875 -14.367188 4.6875 -17.640625 C 6.40625 -20.910156 8.695312 -23.640625 11.5625 -25.828125 C 14.425781 -28.015625 17.453125 -29.109375 20.640625 -29.109375 Z M 8.28125 -14.078125 C 11.164062 -14.285156 13.5 -14.773438 15.28125 -15.546875 C 17.03125 -16.304688 18.445312 -17.289062 19.53125 -18.5 C 20.613281 -19.71875 21.382812 -20.910156 21.84375 -22.078125 C 22.3125 -23.242188 22.546875 -24.207031 22.546875 -24.96875 C 22.546875 -25.6875 22.28125 -26.351562 21.75 -26.96875 C 21.21875 -27.59375 20.46875 -27.90625 19.5 -27.90625 C 17.789062 -27.90625 16.140625 -27.117188 14.546875 -25.546875 C 12.960938 -23.972656 11.609375 -22.101562 10.484375 -19.9375 C 9.359375 -17.769531 8.625 -15.816406 8.28125 -14.078125 Z M 8.28125 -14.078125 "/></g></g></g><g fill="#1b1b1b" fill-opacity="1"><g transform="translate(200.966828, 211.70653)"><g><path d="M 19.8125 -29.109375 C 20.957031 -29.109375 21.992188 -28.710938 22.921875 -27.921875 C 23.859375 -27.140625 24.4375 -26.050781 24.65625 -24.65625 L 24.78125 -24.65625 L 25.796875 -28.40625 L 30.828125 -29.109375 L 24.265625 -6.109375 C 24.222656 -6.023438 24.117188 -5.707031 23.953125 -5.15625 C 23.785156 -4.601562 23.703125 -4.050781 23.703125 -3.5 C 23.703125 -3.164062 23.785156 -2.898438 23.953125 -2.703125 C 24.117188 -2.515625 24.3125 -2.421875 24.53125 -2.421875 C 25.082031 -2.421875 25.78125 -2.800781 26.625 -3.5625 C 27.476562 -4.332031 28.285156 -5.394531 29.046875 -6.75 L 30 -6.109375 C 28.851562 -3.992188 27.398438 -2.316406 25.640625 -1.078125 C 23.878906 0.148438 22.316406 0.765625 20.953125 0.765625 C 20.191406 0.765625 19.617188 0.488281 19.234375 -0.0625 C 18.859375 -0.613281 18.671875 -1.296875 18.671875 -2.109375 C 18.671875 -2.660156 18.785156 -3.5625 19.015625 -4.8125 C 19.242188 -6.0625 19.613281 -7.320312 20.125 -8.59375 L 20 -8.734375 C 15.25 -2.398438 10.941406 0.765625 7.078125 0.765625 C 5.367188 0.765625 4.015625 0.0351562 3.015625 -1.421875 C 2.023438 -2.890625 1.53125 -4.582031 1.53125 -6.5 C 1.53125 -9.8125 2.492188 -13.238281 4.421875 -16.78125 C 6.359375 -20.332031 8.757812 -23.273438 11.625 -25.609375 C 14.488281 -27.941406 17.21875 -29.109375 19.8125 -29.109375 Z M 6.625 -7.703125 C 6.625 -6.046875 7.003906 -4.835938 7.765625 -4.078125 C 8.535156 -3.316406 9.429688 -2.9375 10.453125 -2.9375 C 11.765625 -2.9375 13.1875 -3.53125 14.71875 -4.71875 C 16.25 -5.90625 17.660156 -7.421875 18.953125 -9.265625 C 20.242188 -11.117188 21.207031 -13 21.84375 -14.90625 C 22.488281 -16.769531 22.957031 -18.304688 23.25 -19.515625 C 23.550781 -20.734375 23.703125 -21.914062 23.703125 -23.0625 C 23.703125 -24.71875 23.316406 -25.9375 22.546875 -26.71875 C 21.785156 -27.507812 20.894531 -27.90625 19.875 -27.90625 C 17.875 -27.90625 15.84375 -26.679688 13.78125 -24.234375 C 11.726562 -21.796875 10.019531 -18.941406 8.65625 -15.671875 C 7.300781 -12.398438 6.625 -9.742188 6.625 -7.703125 Z M 6.625 -7.703125 "/></g></g></g><g fill="#1b1b1b" fill-opacity="1"><g transform="translate(228.358603, 211.70653)"><g><path d="M 8.859375 -7.140625 C 8.554688 -6.117188 8.332031 -5.300781 8.1875 -4.6875 C 8.039062 -4.070312 7.96875 -3.550781 7.96875 -3.125 C 7.96875 -2.820312 8.039062 -2.597656 8.1875 -2.453125 C 8.332031 -2.304688 8.46875 -2.234375 8.59375 -2.234375 C 9.101562 -2.234375 9.972656 -2.847656 11.203125 -4.078125 C 12.441406 -5.304688 13.207031 -6.175781 13.5 -6.6875 L 14.53125 -6.109375 C 13.164062 -4.242188 11.675781 -2.628906 10.0625 -1.265625 C 8.445312 0.0859375 6.941406 0.765625 5.546875 0.765625 C 3.847656 0.765625 3 -0.234375 3 -2.234375 C 3 -3.035156 3.164062 -4.03125 3.5 -5.21875 C 3.84375 -6.40625 4.078125 -7.191406 4.203125 -7.578125 L 13.25 -39.046875 C 13.5 -40.023438 13.625 -40.789062 13.625 -41.34375 C 13.625 -41.894531 13.429688 -42.335938 13.046875 -42.671875 C 12.671875 -43.015625 12.1875 -43.1875 11.59375 -43.1875 C 10.789062 -43.1875 10.066406 -43.125 9.421875 -43 L 9.421875 -44.203125 L 18.796875 -45.671875 L 19.875 -45.671875 L 9.6875 -10 C 9.257812 -8.46875 8.984375 -7.515625 8.859375 -7.140625 Z M 8.859375 -7.140625 "/></g></g></g><g fill="#2563eb" fill-opacity="1"><g transform="translate(248.45782, 214.48746)"><g><path d="M 4.96875 0 L 4.96875 -41.171875 L 23.1875 -41.171875 C 26.21875 -41.171875 28.789062 -40.660156 30.90625 -39.640625 C 33.03125 -38.628906 34.644531 -37.160156 35.75 -35.234375 C 36.863281 -33.304688 37.421875 -30.984375 37.421875 -28.265625 C 37.421875 -25.617188 36.863281 -23.320312 35.75 -21.375 C 34.644531 -19.425781 33.03125 -17.925781 30.90625 -16.875 C 28.789062 -15.820312 26.21875 -15.296875 23.1875 -15.296875 L 12.671875 -15.296875 L 12.671875 0 Z M 12.671875 -21.421875 L 21.953125 -21.421875 C 24.554688 -21.421875 26.53125 -21.984375 27.875 -23.109375 C 29.21875 -24.242188 29.890625 -25.960938 29.890625 -28.265625 C 29.890625 -30.515625 29.21875 -32.191406 27.875 -33.296875 C 26.53125 -34.410156 24.554688 -34.96875 21.953125 -34.96875 L 12.671875 -34.96875 Z M 12.671875 -21.421875 "/></g></g></g><g fill="#2563eb" fill-opacity="1"><g transform="translate(282.793206, 214.48746)"><g><path d="M 4.140625 0 L 4.140625 -28.84375 L 11.21875 -28.84375 L 11.21875 -21.84375 L 10.984375 -21.84375 C 11.566406 -24.09375 12.664062 -25.859375 14.28125 -27.140625 C 15.894531 -28.429688 17.984375 -29.15625 20.546875 -29.3125 L 23.296875 -29.546875 L 23.828125 -22.890625 L 19.09375 -22.484375 C 16.71875 -22.242188 14.90625 -21.484375 13.65625 -20.203125 C 12.414062 -18.921875 11.796875 -17.207031 11.796875 -15.0625 L 11.796875 0 Z M 4.140625 0 "/></g></g></g><g fill="#2563eb" fill-opacity="1"><g transform="translate(302.179576, 214.48746)"><g><path d="M 17.515625 0.578125 C 14.484375 0.578125 11.847656 -0.03125 9.609375 -1.25 C 7.367188 -2.476562 5.632812 -4.222656 4.40625 -6.484375 C 3.175781 -8.742188 2.5625 -11.390625 2.5625 -14.421875 C 2.5625 -17.492188 3.175781 -20.148438 4.40625 -22.390625 C 5.632812 -24.628906 7.367188 -26.359375 9.609375 -27.578125 C 11.847656 -28.804688 14.484375 -29.421875 17.515625 -29.421875 C 20.585938 -29.421875 23.234375 -28.804688 25.453125 -27.578125 C 27.671875 -26.359375 29.394531 -24.617188 30.625 -22.359375 C 31.851562 -20.109375 32.46875 -17.460938 32.46875 -14.421875 C 32.46875 -11.390625 31.851562 -8.742188 30.625 -6.484375 C 29.394531 -4.222656 27.671875 -2.476562 25.453125 -1.25 C 23.234375 -0.03125 20.585938 0.578125 17.515625 0.578125 Z M 17.515625 -5.375 C 19.816406 -5.375 21.628906 -6.160156 22.953125 -7.734375 C 24.273438 -9.316406 24.9375 -11.566406 24.9375 -14.484375 C 24.9375 -17.398438 24.273438 -19.625 22.953125 -21.15625 C 21.628906 -22.695312 19.816406 -23.46875 17.515625 -23.46875 C 15.253906 -23.46875 13.453125 -22.695312 12.109375 -21.15625 C 10.773438 -19.625 10.109375 -17.398438 10.109375 -14.484375 C 10.109375 -11.566406 10.773438 -9.316406 12.109375 -7.734375 C 13.453125 -6.160156 15.253906 -5.375 17.515625 -5.375 Z M 17.515625 -5.375 "/></g></g></g><g clip-path="url(#8d570c69fb)"><path fill="#1b1b1b" d="M 19.679688 191.414062 C 19.679688 205.644531 31.257812 217.21875 45.488281 217.21875 C 50.664062 217.21875 55.480469 215.683594 59.523438 213.050781 C 53.125 208 49.003906 200.179688 49.003906 191.414062 C 49.003906 182.648438 53.125 174.828125 59.523438 169.773438 C 55.484375 167.140625 50.664062 165.605469 45.488281 165.605469 C 31.257812 165.605469 19.679688 177.183594 19.679688 191.414062 Z M 19.679688 191.414062 " fill-opacity="1" fill-rule="nonzero"/></g><g clip-path="url(#b436097a2f)"><path fill="#1b1b1b" d="M 50.765625 191.414062 C 50.765625 205.644531 62.34375 217.21875 76.574219 217.21875 C 81.75 217.21875 86.566406 215.683594 90.613281 213.050781 C 84.210938 208 80.09375 200.179688 80.09375 191.414062 C 80.09375 182.648438 84.210938 174.828125 90.613281 169.773438 C 86.566406 167.140625 81.75 165.605469 76.574219 165.605469 C 62.34375 165.605469 50.765625 177.183594 50.765625 191.414062 Z M 50.765625 191.414062 " fill-opacity="1" fill-rule="nonzero"/></g><g clip-path="url(#c0ed974348)"><path fill="#1b1b1b" d="M 133.46875 191.414062 C 133.46875 192.257812 133.425781 193.101562 133.34375 193.941406 C 133.261719 194.785156 133.136719 195.617188 132.972656 196.449219 C 132.808594 197.277344 132.601562 198.09375 132.359375 198.90625 C 132.113281 199.714844 131.828125 200.507812 131.503906 201.289062 C 131.179688 202.070312 130.820312 202.832031 130.421875 203.578125 C 130.023438 204.324219 129.589844 205.046875 129.121094 205.75 C 128.648438 206.453125 128.148438 207.132812 127.609375 207.785156 C 127.074219 208.4375 126.507812 209.0625 125.910156 209.660156 C 125.3125 210.257812 124.6875 210.824219 124.035156 211.363281 C 123.378906 211.898438 122.703125 212.402344 122 212.871094 C 121.296875 213.339844 120.574219 213.773438 119.828125 214.171875 C 119.082031 214.570312 118.320312 214.933594 117.539062 215.253906 C 116.757812 215.578125 115.960938 215.863281 115.152344 216.109375 C 114.34375 216.355469 113.527344 216.558594 112.695312 216.722656 C 111.867188 216.890625 111.03125 217.011719 110.191406 217.097656 C 109.351562 217.179688 108.507812 217.21875 107.660156 217.21875 C 106.816406 217.21875 105.972656 217.179688 105.132812 217.097656 C 104.292969 217.011719 103.457031 216.890625 102.628906 216.722656 C 101.796875 216.558594 100.980469 216.355469 100.171875 216.109375 C 99.363281 215.863281 98.566406 215.578125 97.785156 215.253906 C 97.003906 214.933594 96.242188 214.570312 95.496094 214.171875 C 94.75 213.773438 94.027344 213.339844 93.324219 212.871094 C 92.621094 212.402344 91.941406 211.898438 91.289062 211.363281 C 90.636719 210.824219 90.011719 210.257812 89.414062 209.660156 C 88.816406 209.0625 88.25 208.4375 87.710938 207.785156 C 87.175781 207.132812 86.671875 206.453125 86.203125 205.75 C 85.734375 205.046875 85.300781 204.324219 84.902344 203.578125 C 84.503906 202.832031 84.140625 202.070312 83.820312 201.289062 C 83.496094 200.507812 83.210938 199.714844 82.964844 198.90625 C 82.71875 198.09375 82.515625 197.277344 82.351562 196.449219 C 82.183594 195.617188 82.0625 194.785156 81.980469 193.941406 C 81.894531 193.101562 81.855469 192.257812 81.855469 191.414062 C 81.855469 190.566406 81.894531 189.722656 81.980469 188.882812 C 82.0625 188.042969 82.183594 187.207031 82.351562 186.378906 C 82.515625 185.550781 82.71875 184.730469 82.964844 183.921875 C 83.210938 183.113281 83.496094 182.316406 83.820312 181.535156 C 84.140625 180.757812 84.503906 179.992188 84.902344 179.246094 C 85.300781 178.503906 85.734375 177.777344 86.203125 177.074219 C 86.671875 176.371094 87.175781 175.695312 87.710938 175.039062 C 88.25 174.386719 88.816406 173.761719 89.414062 173.164062 C 90.011719 172.566406 90.636719 172 91.289062 171.464844 C 91.941406 170.925781 92.621094 170.425781 93.324219 169.953125 C 94.027344 169.484375 94.75 169.050781 95.496094 168.652344 C 96.242188 168.253906 97.003906 167.894531 97.785156 167.570312 C 98.566406 167.246094 99.363281 166.960938 100.171875 166.71875 C 100.980469 166.472656 101.796875 166.265625 102.628906 166.101562 C 103.457031 165.9375 104.292969 165.8125 105.132812 165.730469 C 105.972656 165.648438 106.816406 165.605469 107.660156 165.605469 C 108.507812 165.605469 109.351562 165.648438 110.191406 165.730469 C 111.03125 165.8125 111.867188 165.9375 112.695312 166.101562 C 113.527344 166.265625 114.34375 166.472656 115.152344 166.71875 C 115.960938 166.960938 116.757812 167.246094 117.539062 167.570312 C 118.320312 167.894531 119.082031 168.253906 119.828125 168.652344 C 120.574219 169.050781 121.296875 169.484375 122 169.953125 C 122.703125 170.425781 123.378906 170.925781 124.035156 171.464844 C 124.6875 172 125.3125 172.566406 125.910156 173.164062 C 126.507812 173.761719 127.074219 174.386719 127.609375 175.039062 C 128.148438 175.695312 128.648438 176.371094 129.121094 177.074219 C 129.589844 177.777344 130.023438 178.503906 130.421875 179.246094 C 130.820312 179.992188 131.179688 180.757812 131.503906 181.535156 C 131.828125 182.316406 132.113281 183.113281 132.359375 183.921875 C 132.601562 184.730469 132.808594 185.550781 132.972656 186.378906 C 133.136719 187.207031 133.261719 188.042969 133.34375 188.882812 C 133.425781 189.722656 133.46875 190.566406 133.46875 191.414062 Z M 133.46875 191.414062 " fill-opacity="1" fill-rule="nonzero"/></g></svg>